<svg width="325" height="325" viewBox="0 0 325 325" fill="none" xmlns="http://www.w3.org/2000/svg">
<g clip-path="url(#clip0_736_6700)">
<g clip-path="url(#clip1_736_6700)">
<rect x="32.2614" y="45.1878" width="226.163" height="466.849" rx="35.8663" transform="rotate(-6.34036 32.2614 45.1878)" fill="#4B4B4B" stroke="#2B2B2B" stroke-width="2.28448"/>
<g clip-path="url(#clip2_736_6700)">
<rect x="44.5762" y="53.7383" width="204.126" height="442" rx="28" transform="rotate(-6.34036 44.5762 53.7383)" fill="white"/>
<path d="M95.8146 126.591C95.016 126.68 94.6979 127.188 94.607 127.79C94.4837 128.632 93.9535 129.183 93.0187 129.287C91.9669 129.404 91.2247 128.757 91.097 127.608L90.6101 123.226C90.4824 122.077 91.0645 121.283 92.1162 121.166C93.0511 121.062 93.6678 121.466 93.9989 122.317C94.224 122.923 94.6352 123.252 95.4142 123.165C96.427 123.053 96.8749 122.116 96.5633 121.263C95.8816 119.387 94.1331 118.378 91.8933 118.627C88.894 118.961 87.4831 120.813 87.7795 123.481L88.2794 127.98C88.5759 130.648 90.6317 132.116 93.3584 131.813C95.5982 131.564 97.1022 130.194 97.3315 128.177C97.4462 127.257 96.6715 126.496 95.8146 126.591Z" fill="#4B4B4B"/>
<path d="M101.231 121.809C101.006 121.203 100.439 121.069 99.9127 121.127C99.1142 121.216 98.6879 121.816 98.7766 122.614L99.56 129.665C99.6487 130.463 100.294 130.943 101.092 130.855C101.891 130.766 102.375 130.16 102.287 129.362L101.787 124.863C101.674 123.85 102.397 123.434 103.068 123.261C103.758 123.086 104.239 122.618 104.154 121.859C104.076 121.158 103.477 120.731 102.815 120.805C102.211 120.872 101.679 121.404 101.343 122.112L101.231 121.809Z" fill="#4B4B4B"/>
<path d="M112.145 126.038C111.58 126.101 111.355 126.382 111.076 126.886C110.829 127.328 110.552 127.674 109.91 127.746C109.033 127.843 108.464 127.334 108.371 126.497L108.28 125.679L112.019 125.263C112.818 125.175 113.309 124.627 113.214 123.77L113.184 123.498C112.92 121.122 111.193 119.775 108.934 120.027C106.596 120.286 105.168 121.983 105.432 124.359L105.67 126.501C105.934 128.877 107.681 130.221 110.096 129.953C111.712 129.773 113.039 128.936 113.385 127.616C113.619 126.703 112.943 125.949 112.145 126.038ZM108.064 123.731C107.973 122.913 108.375 122.277 109.174 122.188C109.933 122.104 110.466 122.636 110.557 123.454L110.572 123.591L108.079 123.868L108.064 123.731Z" fill="#4B4B4B"/>
<path d="M119.075 126.55C118.277 126.638 117.783 126.102 117.692 125.284L117.428 122.908C117.337 122.09 117.701 121.458 118.5 121.369C119.298 121.28 119.869 121.808 119.96 122.626L120.224 125.002C120.315 125.82 119.874 126.461 119.075 126.55ZM120.757 127.842C121.053 128.38 121.529 128.584 122.075 128.523C122.873 128.435 123.299 127.835 123.211 127.037L122.427 119.986C122.339 119.188 121.791 118.696 120.992 118.785C120.447 118.846 120.027 119.149 119.856 119.74L119.828 119.841C119.296 119.309 118.508 118.963 117.495 119.075C115.334 119.315 114.459 121.029 114.702 123.211L114.966 125.587C115.208 127.768 116.437 129.248 118.599 129.008C119.612 128.896 120.307 128.404 120.707 127.749L120.757 127.842Z" fill="#4B4B4B"/>
<path d="M123.728 119.842C123.804 120.523 124.304 120.941 124.985 120.865L125.57 120.8L126.225 126.702C126.314 127.5 126.92 127.985 127.719 127.896C128.517 127.807 129.041 127.197 128.952 126.399L128.296 120.497L128.92 120.428C129.601 120.352 129.997 119.835 129.921 119.154C129.846 118.472 129.346 118.054 128.664 118.13L128.041 118.199L127.889 116.836C127.801 116.037 127.156 115.557 126.357 115.646C125.559 115.734 125.074 116.34 125.163 117.139L125.314 118.502L124.73 118.567C124.048 118.643 123.652 119.16 123.728 119.842Z" fill="#4B4B4B"/>
<path d="M137.879 123.179C137.314 123.242 137.089 123.523 136.81 124.027C136.563 124.469 136.286 124.815 135.643 124.886C134.767 124.984 134.198 124.475 134.105 123.638L134.014 122.82L137.753 122.404C138.552 122.315 139.043 121.768 138.948 120.911L138.917 120.638C138.653 118.262 136.926 116.916 134.667 117.167C132.33 117.427 130.902 119.123 131.166 121.5L131.404 123.642C131.668 126.018 133.414 127.362 135.829 127.094C137.446 126.914 138.772 126.076 139.119 124.756C139.352 123.843 138.677 123.09 137.879 123.179ZM133.797 120.872C133.706 120.054 134.109 119.418 134.907 119.329C135.667 119.245 136.199 119.777 136.29 120.595L136.305 120.731L133.812 121.008L133.797 120.872Z" fill="#4B4B4B"/>
<path d="M143.014 117.699C143.09 118.38 143.59 118.798 144.271 118.722L144.856 118.657L145.511 124.559C145.6 125.357 146.206 125.842 147.005 125.753C147.803 125.664 148.327 125.054 148.238 124.256L147.582 118.354L148.206 118.285C148.887 118.209 149.283 117.692 149.207 117.011C149.132 116.329 148.632 115.911 147.95 115.987L147.327 116.056L147.175 114.693C147.087 113.894 146.442 113.414 145.643 113.503C144.845 113.591 144.36 114.197 144.449 114.996L144.6 116.359L144.016 116.424C143.334 116.5 142.938 117.017 143.014 117.699Z" fill="#4B4B4B"/>
<path d="M152.806 125.109C153.605 125.02 154.109 124.412 154.02 123.613L153.497 118.9C153.406 118.082 153.847 117.441 154.646 117.353C155.444 117.264 155.938 117.801 156.029 118.619L156.552 123.332C156.641 124.13 157.247 124.615 158.065 124.524C158.863 124.436 159.368 123.827 159.279 123.029L158.734 118.121C158.504 116.056 157.381 114.643 155.219 114.884C154.284 114.987 153.603 115.418 153.172 115.979L152.832 112.921C152.744 112.122 152.118 111.64 151.32 111.728C150.521 111.817 150.017 112.425 150.106 113.224L151.294 123.916C151.382 124.715 151.988 125.199 152.806 125.109Z" fill="#4B4B4B"/>
<path d="M160.073 111.978C160.166 112.816 160.901 113.404 161.739 113.311C162.576 113.218 163.165 112.482 163.072 111.645C162.979 110.808 162.243 110.219 161.406 110.312C160.568 110.405 159.98 111.141 160.073 111.978ZM161.843 114.246C161.044 114.335 160.54 114.943 160.629 115.741L161.412 122.792C161.501 123.59 162.126 124.073 162.925 123.984C163.723 123.896 164.228 123.287 164.139 122.489L163.355 115.439C163.267 114.64 162.641 114.157 161.843 114.246Z" fill="#4B4B4B"/>
<path d="M169.714 119.622C170.378 119.745 170.638 119.953 170.681 120.342C170.744 120.907 170.385 121.223 169.489 121.323C168.787 121.401 168.322 121.117 168.006 120.758C167.578 120.273 167.305 120.126 166.818 120.18C165.922 120.28 165.518 121.251 165.888 121.92C166.5 122.995 167.959 123.524 169.731 123.327C172.127 123.06 173.408 121.636 173.204 119.806C172.999 117.955 171.618 117.419 170.146 117.129L168.837 116.88C168.052 116.731 167.943 116.467 167.915 116.213C167.87 115.804 168.264 115.445 168.984 115.365C169.491 115.309 169.798 115.413 170.214 115.781C170.672 116.183 170.936 116.43 171.54 116.363C172.553 116.25 172.849 115.015 172.265 114.37C171.503 113.547 170.302 113.208 168.725 113.383C166.465 113.634 165.258 115.188 165.427 116.707C165.6 118.265 166.691 119.031 168.041 119.295L169.714 119.622Z" fill="#4B4B4B"/>
<path d="M182.43 119.51C181.631 119.599 181.138 119.062 181.047 118.244L180.783 115.868C180.692 115.05 181.056 114.418 181.854 114.329C182.653 114.241 183.224 114.769 183.315 115.587L183.579 117.963C183.67 118.781 183.228 119.421 182.43 119.51ZM184.111 120.802C184.408 121.341 184.884 121.544 185.429 121.484C186.228 121.395 186.654 120.796 186.565 119.997L185.782 112.947C185.693 112.148 185.146 111.657 184.347 111.746C183.802 111.806 183.382 112.109 183.211 112.7L183.183 112.802C182.651 112.269 181.863 111.923 180.85 112.036C178.688 112.276 177.814 113.99 178.056 116.171L178.32 118.547C178.563 120.728 179.792 122.209 181.954 121.968C182.967 121.856 183.661 121.365 184.062 120.709L184.111 120.802Z" fill="#4B4B4B"/>
<path d="M190.452 111.895C190.212 111.331 189.68 111.153 189.134 111.214C188.336 111.302 187.909 111.902 187.998 112.7L188.782 119.751C188.87 120.549 189.476 121.034 190.294 120.943C191.093 120.854 191.597 120.246 191.508 119.448L190.984 114.735C190.894 113.917 191.335 113.276 192.134 113.187C192.932 113.099 193.425 113.635 193.516 114.453L194.04 119.166C194.129 119.965 194.754 120.448 195.553 120.359C196.351 120.27 196.855 119.662 196.767 118.863L196.221 113.955C195.992 111.891 194.869 110.478 192.707 110.718C191.675 110.833 190.924 111.35 190.506 112.027L190.452 111.895Z" fill="#4B4B4B"/>
<path d="M202.414 116.895C201.616 116.984 201.122 116.447 201.032 115.629L200.811 113.643C200.72 112.825 201.083 112.193 201.882 112.104C202.681 112.015 203.252 112.543 203.343 113.361L203.563 115.348C203.654 116.166 203.213 116.806 202.414 116.895ZM203.211 110.576C202.678 110.044 201.891 109.698 200.878 109.81C198.716 110.05 197.842 111.764 198.084 113.946L198.305 115.932C198.547 118.114 199.776 119.594 201.938 119.354C202.834 119.254 203.481 118.867 203.895 118.328L204.037 119.613C204.133 120.47 203.78 121.022 202.826 121.128C202.222 121.195 201.878 120.938 201.553 120.678C201.161 120.347 200.843 120.146 200.337 120.202C199.168 120.332 198.937 121.619 199.564 122.299C200.283 123.086 201.646 123.467 203.185 123.296C205.58 123.03 207.002 121.453 206.758 119.252L205.81 110.721C205.721 109.923 205.173 109.431 204.375 109.52C203.83 109.581 203.41 109.884 203.239 110.475L203.211 110.576Z" fill="#4B4B4B"/>
<path d="M208.835 105.338C208.037 105.426 207.532 106.034 207.621 106.833L208.809 117.525C208.898 118.324 209.523 118.806 210.322 118.718C211.12 118.629 211.625 118.021 211.536 117.222L210.348 106.53C210.259 105.731 209.634 105.249 208.835 105.338Z" fill="#4B4B4B"/>
<path d="M219.625 114.096C219.061 114.158 218.836 114.44 218.556 114.944C218.31 115.385 218.033 115.732 217.39 115.803C216.514 115.9 215.944 115.392 215.851 114.554L215.76 113.736L219.5 113.321C220.298 113.232 220.79 112.685 220.694 111.828L220.664 111.555C220.4 109.179 218.673 107.833 216.414 108.084C214.077 108.344 212.649 110.04 212.913 112.416L213.151 114.559C213.415 116.935 215.161 118.279 217.576 118.01C219.193 117.831 220.519 116.993 220.865 115.673C221.099 114.76 220.424 114.007 219.625 114.096ZM215.544 111.789C215.453 110.971 215.856 110.335 216.654 110.246C217.414 110.161 217.946 110.694 218.037 111.512L218.052 111.648L215.559 111.925L215.544 111.789Z" fill="#4B4B4B"/>
<rect x="86.7565" y="88.3193" width="149.549" height="10.8867" rx="5.44336" transform="rotate(-6.34036 86.7565 88.3193)" fill="#E5E5E5"/>
<rect x="86.7566" y="88.3193" width="32.9867" height="10.8867" rx="5.44335" transform="rotate(-6.34036 86.7566 88.3193)" fill="#58CC02"/>
<rect x="92.7139" y="90.9434" width="21.0601" height="2.72167" rx="1.36084" transform="rotate(-6.34036 92.7139 90.9434)" fill="white" fill-opacity="0.2"/>
<line x1="66.7668" y1="91.6356" x2="75.8867" y2="98.9315" stroke="#AFAFAF" stroke-width="2.17734" stroke-linecap="round" stroke-linejoin="round"/>
<line x1="67.7716" y1="99.8331" x2="75.0675" y2="90.7132" stroke="#AFAFAF" stroke-width="2.17734" stroke-linecap="round"/>
<path d="M123.789 162.501C123.967 164.101 125.141 165.079 126.742 164.901L128.973 164.653L130.85 181.539L128.492 181.801C126.976 181.97 126.091 183.219 126.264 184.777C126.433 186.293 127.57 187.318 129.086 187.149L140.077 185.928C141.593 185.76 142.477 184.511 142.308 182.995C142.14 181.479 140.998 180.412 139.482 180.58L136.956 180.861L134.771 161.195C134.593 159.595 133.423 158.66 131.823 158.837L126.138 159.469C124.538 159.647 123.611 160.901 123.789 162.501Z" fill="#4B4B4B"/>
<path d="M149.894 170.556C150.034 171.82 151.204 172.755 152.383 172.624L152.72 172.587C154.994 172.334 156.393 173.031 156.669 175.516C156.931 177.874 155.892 179.268 153.745 179.507C151.934 179.708 150.863 178.889 150.282 177.121C149.763 175.516 148.598 175.006 147.082 175.174C145.482 175.352 143.905 176.892 144.668 179.151C145.95 183.016 149.319 185.328 154.456 184.757C160.225 184.116 163.566 180.419 163.014 175.45C162.639 172.082 161.016 170.13 158.873 169.26C160.478 167.973 161.488 165.943 161.166 163.037C160.66 158.489 156.931 155.621 151.372 156.239C146.993 156.725 144.092 159.392 143.315 162.761C143.227 163.112 143.222 163.454 143.259 163.791C143.432 165.349 144.761 166.565 146.488 166.373C148.004 166.205 148.663 165.236 149.122 163.992C149.618 162.7 150.254 161.905 151.812 161.732C153.665 161.526 154.919 162.452 155.139 164.432C155.382 166.621 154.517 167.655 152.201 167.913L151.864 167.95C150.685 168.081 149.749 169.251 149.894 170.556Z" fill="#4B4B4B"/>
<path d="M182.473 155.938C182.3 154.38 181.121 153.36 179.562 153.533L168.235 154.791C166.424 154.993 165.376 156.303 165.577 158.113L166.719 168.388C166.92 170.199 168.417 171.397 170.228 171.196C171.154 171.093 172.053 170.737 172.605 170.335C173.714 169.572 174.14 169.184 175.487 169.034C177.719 168.786 178.861 170.237 179.141 172.763C179.417 175.248 178.407 176.895 176.217 177.138C174.575 177.32 173.574 176.75 172.909 175.758C172.301 174.887 171.342 174.312 170.163 174.443C167.636 174.724 166.789 177.077 167.968 178.865C169.709 181.485 172.998 182.697 177.041 182.247C182.641 181.625 186.048 177.751 185.397 171.898C184.77 166.255 181.088 163.424 176.287 163.957C174.224 164.187 172.858 164.935 171.983 165.885L171.314 159.863L180.157 158.881C181.715 158.708 182.646 157.496 182.473 155.938Z" fill="#4B4B4B"/>
<path d="M197.024 156.515C196.729 153.862 194.689 152.383 191.994 152.683C189.299 152.982 187.676 154.868 187.97 157.521L188.204 159.626C188.494 162.237 190.492 163.72 193.187 163.421C195.882 163.121 197.548 161.231 197.258 158.62L197.024 156.515ZM191.643 156.814C191.578 156.225 191.831 155.813 192.336 155.757C192.841 155.701 193.22 156.042 193.286 156.632L193.58 159.285C193.646 159.874 193.351 160.291 192.846 160.347C192.341 160.403 192.004 160.057 191.938 159.467L191.643 156.814Z" fill="#1CB0F6"/>
<mask id="path-12-outside-1_736_6700" maskUnits="userSpaceOnUse" x="81.6513" y="203.26" width="176.359" height="103.033" fill="black">
<rect fill="white" x="81.6513" y="203.26" width="176.359" height="103.033"/>
<path fill-rule="evenodd" clip-rule="evenodd" d="M255.164 283.024C255.357 284.229 254.49 285.341 253.277 285.475L95.8493 302.968C94.6364 303.103 93.5462 302.209 93.4701 300.991C90.7941 258.152 122.434 220.299 165.814 215.479C209.193 210.659 248.371 240.643 255.164 283.024Z"/>
</mask>
<path fill-rule="evenodd" clip-rule="evenodd" d="M255.164 283.024C255.357 284.229 254.49 285.341 253.277 285.475L95.8493 302.968C94.6364 303.103 93.5462 302.209 93.4701 300.991C90.7941 258.152 122.434 220.299 165.814 215.479C209.193 210.659 248.371 240.643 255.164 283.024Z" fill="white"/>
<path d="M255.164 283.024L253.014 283.369L255.164 283.024ZM93.4701 300.991L91.297 301.126L93.4701 300.991ZM96.0898 305.132L253.517 287.639L253.036 283.311L95.6089 300.804L96.0898 305.132ZM95.6432 300.855C93.04 259.182 123.823 222.336 166.054 217.643L165.573 213.315C121.045 218.263 88.5482 257.122 91.297 301.126L95.6432 300.855ZM166.054 217.643C208.285 212.951 246.406 242.141 253.014 283.369L257.314 282.68C250.336 239.146 210.101 208.368 165.573 213.315L166.054 217.643ZM253.517 287.639C255.934 287.371 257.709 285.144 257.314 282.68L253.014 283.369C253.014 283.367 253.013 283.363 253.014 283.357C253.014 283.351 253.015 283.344 253.016 283.339C253.019 283.327 253.023 283.321 253.025 283.319C253.027 283.317 253.029 283.315 253.032 283.314C253.036 283.311 253.039 283.311 253.036 283.311L253.517 287.639ZM95.6089 300.804C95.6061 300.804 95.6091 300.804 95.6139 300.805C95.6172 300.806 95.6194 300.807 95.6215 300.809C95.6236 300.811 95.6288 300.816 95.6342 300.826C95.6369 300.831 95.6392 300.837 95.6409 300.843C95.6426 300.849 95.6431 300.854 95.6432 300.855L91.297 301.126C91.4526 303.618 93.6727 305.4 96.0898 305.132L95.6089 300.804Z" fill="#E5E5E5" mask="url(#path-12-outside-1_736_6700)"/>
<mask id="path-14-outside-2_736_6700" maskUnits="userSpaceOnUse" x="81.6513" y="205.91" width="152.506" height="100.383" fill="black">
<rect fill="white" x="81.6513" y="205.91" width="152.506" height="100.383"/>
<path fill-rule="evenodd" clip-rule="evenodd" d="M223.608 231.1L176.32 294.026L95.8493 302.968C94.6364 303.103 93.5462 302.209 93.4701 300.991C90.7941 258.152 122.434 220.299 165.814 215.479C187.234 213.099 207.629 219.205 223.608 231.1Z"/>
</mask>
<path fill-rule="evenodd" clip-rule="evenodd" d="M223.608 231.1L176.32 294.026L95.8493 302.968C94.6364 303.103 93.5462 302.209 93.4701 300.991C90.7941 258.152 122.434 220.299 165.814 215.479C187.234 213.099 207.629 219.205 223.608 231.1Z" fill="#DDF4FF"/>
<path d="M223.608 231.1L225.348 232.408L226.662 230.659L224.908 229.353L223.608 231.1ZM176.32 294.026L176.56 296.19L177.495 296.086L178.06 295.334L176.32 294.026ZM93.4701 300.991L95.6432 300.855L95.6432 300.855L93.4701 300.991ZM221.867 229.792L174.579 292.718L178.06 295.334L225.348 232.408L221.867 229.792ZM176.079 291.862L95.6089 300.804L96.0898 305.132L176.56 296.19L176.079 291.862ZM95.6089 300.804C95.6061 300.804 95.6091 300.804 95.6139 300.805C95.6172 300.806 95.6194 300.807 95.6215 300.809C95.6236 300.811 95.6288 300.816 95.6342 300.826C95.6369 300.831 95.6392 300.837 95.6409 300.843C95.6426 300.849 95.6431 300.854 95.6432 300.855L91.297 301.126C91.4526 303.618 93.6727 305.4 96.0898 305.132L95.6089 300.804ZM95.6432 300.855C93.04 259.182 123.823 222.336 166.054 217.643L165.573 213.315C121.045 218.263 88.5482 257.122 91.297 301.126L95.6432 300.855ZM166.054 217.643C186.907 215.326 206.755 221.269 222.307 232.846L224.908 229.353C208.504 217.142 187.561 210.872 165.573 213.315L166.054 217.643Z" fill="#84D8FF" mask="url(#path-14-outside-2_736_6700)"/>
<path d="M221.327 262.474L221.327 262.474L221.321 262.465C221.088 262.132 220.722 261.864 220.263 261.811C220.574 261.748 220.872 261.623 221.09 261.466C221.137 261.434 221.177 261.406 221.213 261.382C221.33 261.3 221.391 261.257 221.462 261.221C221.526 261.188 221.604 261.16 221.77 261.141C221.991 261.117 222.082 261.176 222.139 261.237C222.22 261.325 222.312 261.513 222.352 261.868C222.388 262.193 222.33 262.387 222.263 262.49C222.206 262.577 222.106 262.659 221.886 262.683C221.695 262.704 221.583 262.677 221.516 262.647C221.451 262.618 221.39 262.568 221.327 262.474ZM219.723 261.844C219.241 261.953 218.869 262.249 218.684 262.661C218.479 263.119 218.536 263.65 218.821 264.083L218.822 264.084C219.534 265.156 220.834 265.579 222.273 265.419C223.29 265.306 224.16 264.89 224.744 264.185C225.329 263.477 225.578 262.535 225.459 261.467C225.346 260.448 224.948 259.621 224.301 259.076C223.651 258.529 222.809 258.316 221.909 258.416C221.574 258.453 221.278 258.528 221.018 258.635L220.96 258.112L223.281 257.854C223.665 257.812 224.005 257.635 224.235 257.34C224.465 257.047 224.554 256.676 224.512 256.3C224.47 255.925 224.302 255.582 224.018 255.344C223.73 255.103 223.358 254.998 222.969 255.041L219.302 255.448C218.889 255.494 218.516 255.674 218.262 255.992C218.008 256.309 217.914 256.712 217.96 257.125L218.33 260.451C218.415 261.219 218.994 261.775 219.723 261.844ZM211.634 257.745C211.676 258.124 211.843 258.471 212.136 258.711C212.429 258.951 212.805 259.046 213.191 259.003L213.373 258.983L213.86 263.368L213.637 263.392C213.249 263.436 212.915 263.624 212.694 263.924C212.476 264.219 212.394 264.588 212.435 264.957C212.476 265.323 212.638 265.661 212.915 265.898C213.196 266.139 213.562 266.249 213.95 266.206L217.508 265.811C217.896 265.767 218.23 265.58 218.45 265.283C218.668 264.991 218.752 264.626 218.712 264.26C218.629 263.517 218.03 262.904 217.196 262.997L216.919 263.028L216.271 257.202C216.229 256.822 216.062 256.476 215.766 256.24C215.47 256.003 215.096 255.916 214.716 255.958L212.875 256.162C212.483 256.206 212.138 256.389 211.907 256.691C211.678 256.991 211.592 257.366 211.634 257.745ZM232.39 257.343C232.276 256.321 231.824 255.485 231.1 254.94C230.38 254.398 229.443 254.183 228.426 254.296C227.331 254.418 226.453 254.829 225.884 255.528C225.314 256.228 225.116 257.141 225.227 258.139L225.607 261.561C225.721 262.583 226.173 263.419 226.897 263.964C227.617 264.506 228.554 264.721 229.571 264.608C230.589 264.495 231.456 264.08 232.039 263.393C232.626 262.702 232.883 261.787 232.77 260.765L232.39 257.343ZM228.291 257.84C228.261 257.574 228.316 257.415 228.378 257.329C228.434 257.251 228.536 257.174 228.743 257.151C228.949 257.128 229.066 257.181 229.138 257.245C229.217 257.315 229.306 257.458 229.335 257.724L229.706 261.064C229.736 261.331 229.681 261.49 229.619 261.576C229.563 261.653 229.461 261.731 229.254 261.754C229.048 261.777 228.931 261.724 228.859 261.66C228.78 261.59 228.691 261.447 228.662 261.18L228.291 257.84ZM224.165 285.873C224.207 286.252 224.374 286.599 224.666 286.838C224.96 287.079 225.335 287.174 225.722 287.131L225.903 287.111L226.391 291.495L226.168 291.52C225.78 291.563 225.445 291.751 225.224 292.051C225.007 292.347 224.925 292.716 224.966 293.085C225.007 293.451 225.169 293.789 225.446 294.026C225.726 294.267 226.093 294.377 226.481 294.334L230.039 293.938C230.427 293.895 230.76 293.707 230.981 293.411C231.199 293.119 231.283 292.753 231.242 292.387C231.16 291.645 230.561 291.032 229.726 291.125L229.449 291.156L228.802 285.33C228.76 284.95 228.592 284.604 228.297 284.367C228.001 284.131 227.627 284.043 227.247 284.086L225.406 284.29C225.014 284.334 224.669 284.516 224.438 284.819C224.209 285.118 224.123 285.494 224.165 285.873ZM237.375 285.923C237.277 285.049 236.867 284.304 236.192 283.814C235.52 283.327 234.636 283.126 233.644 283.237C232.646 283.348 231.821 283.737 231.268 284.359C230.711 284.985 230.469 285.803 230.567 286.68C230.656 287.485 230.962 288.092 231.414 288.505C231.283 288.662 231.17 288.839 231.08 289.04C230.866 289.513 230.793 290.079 230.865 290.732C230.97 291.677 231.414 292.458 232.131 292.964C232.84 293.465 233.767 293.662 234.79 293.548C235.812 293.435 236.673 293.039 237.256 292.395C237.844 291.744 238.105 290.884 238 289.939C237.927 289.283 237.727 288.745 237.411 288.328C237.276 288.151 237.125 288 236.961 287.874C237.302 287.377 237.463 286.72 237.375 285.923ZM233.616 286.506C233.588 286.253 233.64 286.152 233.665 286.118C233.685 286.092 233.744 286.032 233.938 286.011C234.123 285.99 234.196 286.033 234.226 286.058C234.26 286.087 234.334 286.176 234.361 286.424C234.395 286.724 234.349 286.865 234.315 286.919C234.299 286.946 234.257 287.005 234.065 287.027C233.862 287.049 233.798 286.999 233.772 286.973C233.726 286.927 233.649 286.802 233.616 286.506ZM233.938 290.266C233.901 289.936 233.957 289.78 234.002 289.714C234.035 289.665 234.109 289.594 234.334 289.569C234.559 289.544 234.659 289.597 234.71 289.643C234.773 289.7 234.865 289.838 234.9 290.159C234.936 290.48 234.877 290.631 234.83 290.695C234.793 290.748 234.71 290.819 234.489 290.844C234.268 290.869 234.172 290.817 234.124 290.774C234.064 290.721 233.973 290.587 233.938 290.266ZM244.987 285.464C244.873 284.442 244.421 283.606 243.697 283.061C242.977 282.519 242.04 282.304 241.023 282.417C239.928 282.538 239.05 282.949 238.481 283.648C237.911 284.349 237.713 285.261 237.824 286.26L238.205 289.682C238.318 290.704 238.77 291.54 239.494 292.085C240.214 292.627 241.151 292.842 242.169 292.728C243.186 292.615 244.053 292.2 244.636 291.513C245.223 290.823 245.481 289.908 245.367 288.886L244.987 285.464ZM240.888 285.961C240.858 285.694 240.914 285.535 240.975 285.449C241.031 285.372 241.133 285.294 241.34 285.271C241.546 285.248 241.664 285.301 241.735 285.365C241.814 285.435 241.903 285.578 241.933 285.845L242.304 289.185C242.333 289.451 242.278 289.61 242.216 289.696C242.161 289.774 242.058 289.851 241.851 289.874C241.645 289.897 241.528 289.844 241.456 289.78C241.378 289.71 241.289 289.567 241.259 289.301L240.888 285.961Z" fill="#CFCFCF" stroke="white" stroke-width="1.08867"/>
<mask id="path-17-outside-3_736_6700" maskUnits="userSpaceOnUse" x="102.421" y="222.606" width="106" height="87" fill="black">
<rect fill="white" x="102.421" y="222.606" width="106" height="87"/>
<path d="M162.867 229.474C162.172 229.551 161.803 229.095 161.722 228.359C161.641 227.636 161.952 227.202 162.62 227.127C163.261 227.056 163.705 227.449 163.823 228.512L163.87 228.935C163.674 229.163 163.399 229.415 162.867 229.474ZM159.696 228.639C159.89 230.384 161.04 231.292 162.649 231.113C163.249 231.046 163.72 230.814 164.047 230.53L164.177 231.702C164.262 232.466 163.898 232.92 163.176 233C162.712 233.052 162.362 232.884 162.175 232.559C161.985 232.222 161.62 232.041 161.225 232.085C160.475 232.169 160.219 232.97 160.496 233.477C161.031 234.439 162.043 234.851 163.392 234.701C165.369 234.482 166.343 233.187 166.136 231.319L165.795 228.251C165.563 226.166 164.207 225.267 162.408 225.467C160.649 225.663 159.49 226.785 159.696 228.639Z"/>
<path d="M173.284 227.198C173.085 225.413 171.734 224.431 169.921 224.632C167.93 224.854 167.005 226.088 167.203 227.874L167.584 231.296C167.782 233.082 169.133 234.064 170.946 233.862C172.76 233.661 173.862 232.406 173.664 230.62L173.284 227.198ZM169.185 227.695C169.104 226.973 169.45 226.479 170.118 226.405C170.786 226.33 171.231 226.736 171.311 227.459L171.683 230.799C171.763 231.522 171.418 232.016 170.749 232.09C170.081 232.164 169.636 231.758 169.556 231.035L169.185 227.695Z"/>
<path d="M185.638 234.893C185.695 235.411 186.076 235.727 186.594 235.67L187.316 235.59L187.924 241.056L187.16 241.141C186.67 241.196 186.383 241.6 186.439 242.105C186.494 242.595 186.862 242.927 187.353 242.873L190.911 242.477C191.402 242.423 191.688 242.018 191.633 241.528C191.579 241.037 191.209 240.691 190.719 240.746L189.901 240.837L189.193 234.47C189.136 233.952 188.757 233.649 188.239 233.707L186.398 233.911C185.88 233.969 185.58 234.375 185.638 234.893Z"/>
<path d="M197.751 239.896L194.601 240.245C194.61 240.079 194.671 239.755 195.075 239.42L196.53 238.223C197.567 237.376 198.099 236.448 197.947 235.085C197.775 233.53 196.49 232.652 194.677 232.853C193.177 233.02 191.897 234.045 191.908 235.383C191.911 235.907 192.355 236.299 192.914 236.237C193.391 236.184 193.661 236.003 193.773 235.521C193.895 235.01 194.206 234.7 194.792 234.635C195.474 234.559 195.84 234.877 195.901 235.422C195.984 236.172 195.572 236.687 195.092 237.086L193.549 238.347C192.385 239.305 192.376 240.341 192.502 241.472L192.509 241.541C192.559 241.99 192.893 242.257 193.343 242.207L197.951 241.695C198.482 241.636 198.797 241.242 198.738 240.71C198.679 240.179 198.282 239.836 197.751 239.896Z"/>
<path d="M205.431 234.598C205.233 232.812 203.882 231.831 202.068 232.032C200.078 232.253 199.152 233.488 199.351 235.274L199.731 238.696C199.929 240.482 201.281 241.463 203.094 241.262C204.907 241.06 206.01 239.806 205.811 238.02L205.431 234.598ZM201.332 235.095C201.252 234.372 201.597 233.879 202.265 233.804C202.933 233.73 203.379 234.136 203.459 234.859L203.83 238.199C203.91 238.921 203.565 239.415 202.897 239.489C202.229 239.564 201.784 239.158 201.703 238.435L201.332 235.095Z"/>
<path d="M110.528 300.952C110.33 299.166 108.978 298.185 107.165 298.386C105.175 298.607 104.249 299.842 104.448 301.628L104.828 305.05C105.026 306.836 106.377 307.817 108.191 307.616C110.004 307.414 111.107 306.16 110.908 304.374L110.528 300.952ZM106.429 301.449C106.349 300.726 106.694 300.233 107.362 300.158C108.03 300.084 108.475 300.49 108.556 301.213L108.927 304.553C109.007 305.275 108.662 305.769 107.994 305.843C107.326 305.918 106.88 305.512 106.8 304.789L106.429 301.449Z"/>
<path d="M114.593 299.065C114.498 298.206 113.838 297.727 112.965 297.824C112.092 297.921 111.567 298.532 111.662 299.391L111.738 300.072C111.832 300.918 112.479 301.398 113.351 301.301C114.224 301.204 114.763 300.592 114.669 299.747L114.593 299.065ZM112.851 299.162C112.83 298.971 112.912 298.838 113.076 298.82C113.239 298.801 113.362 298.912 113.383 299.103L113.479 299.962C113.5 300.153 113.404 300.287 113.241 300.306C113.077 300.324 112.968 300.212 112.947 300.021L112.851 299.162Z"/>
<path d="M112.338 272.326C112.383 272.735 112.762 273.038 113.144 272.995L113.253 272.983C113.989 272.901 114.442 273.127 114.531 273.931C114.616 274.695 114.28 275.146 113.585 275.223C112.998 275.289 112.651 275.024 112.464 274.451C112.295 273.931 111.918 273.766 111.427 273.821C110.909 273.878 110.399 274.377 110.646 275.108C111.061 276.36 112.152 277.108 113.815 276.923C115.683 276.716 116.764 275.519 116.585 273.91C116.464 272.819 115.939 272.188 115.245 271.906C115.764 271.489 116.092 270.832 115.987 269.891C115.823 268.419 114.616 267.49 112.817 267.69C111.399 267.848 110.46 268.711 110.208 269.802C110.179 269.916 110.178 270.026 110.19 270.135C110.246 270.64 110.676 271.034 111.235 270.971C111.726 270.917 111.939 270.603 112.088 270.2C112.248 269.782 112.455 269.525 112.959 269.469C113.559 269.402 113.965 269.702 114.036 270.343C114.115 271.052 113.834 271.386 113.085 271.47L112.976 271.482C112.594 271.524 112.291 271.903 112.338 272.326Z"/>
<path d="M123.587 269.433C123.388 267.647 122.037 266.666 120.224 266.867C118.233 267.089 117.308 268.323 117.506 270.109L117.886 273.531C118.085 275.317 119.436 276.298 121.249 276.097C123.062 275.896 124.165 274.641 123.967 272.855L123.587 269.433ZM119.488 269.93C119.407 269.208 119.753 268.714 120.421 268.64C121.089 268.565 121.534 268.971 121.614 269.694L121.985 273.034C122.066 273.757 121.72 274.25 121.052 274.325C120.384 274.399 119.939 273.993 119.859 273.27L119.488 269.93Z"/>
<path d="M136.532 245.787C136.338 244.042 135.188 243.135 133.58 243.314C132.98 243.38 132.509 243.612 132.181 243.897L132.051 242.724C131.966 241.961 132.33 241.506 133.052 241.426C133.516 241.375 133.866 241.543 134.054 241.867C134.243 242.205 134.608 242.385 135.004 242.341C135.753 242.258 136.009 241.456 135.732 240.949C135.197 239.987 134.186 239.575 132.836 239.725C130.859 239.945 129.885 241.24 130.093 243.108L130.464 246.448C130.671 248.315 132.021 249.159 133.821 248.959C135.62 248.759 136.738 247.641 136.532 245.787ZM133.362 244.953C134.057 244.875 134.425 245.331 134.507 246.067C134.587 246.79 134.276 247.225 133.608 247.299C132.968 247.37 132.533 247.06 132.436 246.187L132.359 245.492C132.554 245.263 132.83 245.012 133.362 244.953Z"/>
<path d="M143.507 241.479C143.308 239.693 141.957 238.711 140.144 238.913C138.154 239.134 137.228 240.369 137.427 242.155L137.807 245.577C138.005 247.362 139.356 248.344 141.17 248.143C142.983 247.941 144.086 246.687 143.887 244.901L143.507 241.479ZM139.408 241.976C139.328 241.253 139.673 240.759 140.341 240.685C141.009 240.611 141.454 241.017 141.535 241.74L141.906 245.08C141.986 245.802 141.641 246.296 140.973 246.37C140.305 246.444 139.859 246.039 139.779 245.316L139.408 241.976Z"/>
</mask>
<path d="M162.867 229.474C162.172 229.551 161.803 229.095 161.722 228.359C161.641 227.636 161.952 227.202 162.62 227.127C163.261 227.056 163.705 227.449 163.823 228.512L163.87 228.935C163.674 229.163 163.399 229.415 162.867 229.474ZM159.696 228.639C159.89 230.384 161.04 231.292 162.649 231.113C163.249 231.046 163.72 230.814 164.047 230.53L164.177 231.702C164.262 232.466 163.898 232.92 163.176 233C162.712 233.052 162.362 232.884 162.175 232.559C161.985 232.222 161.62 232.041 161.225 232.085C160.475 232.169 160.219 232.97 160.496 233.477C161.031 234.439 162.043 234.851 163.392 234.701C165.369 234.482 166.343 233.187 166.136 231.319L165.795 228.251C165.563 226.166 164.207 225.267 162.408 225.467C160.649 225.663 159.49 226.785 159.696 228.639Z" fill="#84D8FF"/>
<path d="M173.284 227.198C173.085 225.413 171.734 224.431 169.921 224.632C167.93 224.854 167.005 226.088 167.203 227.874L167.584 231.296C167.782 233.082 169.133 234.064 170.946 233.862C172.76 233.661 173.862 232.406 173.664 230.62L173.284 227.198ZM169.185 227.695C169.104 226.973 169.45 226.479 170.118 226.405C170.786 226.33 171.231 226.736 171.311 227.459L171.683 230.799C171.763 231.522 171.418 232.016 170.749 232.09C170.081 232.164 169.636 231.758 169.556 231.035L169.185 227.695Z" fill="#84D8FF"/>
<path d="M185.638 234.893C185.695 235.411 186.076 235.727 186.594 235.67L187.316 235.59L187.924 241.056L187.16 241.141C186.67 241.196 186.383 241.6 186.439 242.105C186.494 242.595 186.862 242.927 187.353 242.873L190.911 242.477C191.402 242.423 191.688 242.018 191.633 241.528C191.579 241.037 191.209 240.691 190.719 240.746L189.901 240.837L189.193 234.47C189.136 233.952 188.757 233.649 188.239 233.707L186.398 233.911C185.88 233.969 185.58 234.375 185.638 234.893Z" fill="#84D8FF"/>
<path d="M197.751 239.896L194.601 240.245C194.61 240.079 194.671 239.755 195.075 239.42L196.53 238.223C197.567 237.376 198.099 236.448 197.947 235.085C197.775 233.53 196.49 232.652 194.677 232.853C193.177 233.02 191.897 234.045 191.908 235.383C191.911 235.907 192.355 236.299 192.914 236.237C193.391 236.184 193.661 236.003 193.773 235.521C193.895 235.01 194.206 234.7 194.792 234.635C195.474 234.559 195.84 234.877 195.901 235.422C195.984 236.172 195.572 236.687 195.092 237.086L193.549 238.347C192.385 239.305 192.376 240.341 192.502 241.472L192.509 241.541C192.559 241.99 192.893 242.257 193.343 242.207L197.951 241.695C198.482 241.636 198.797 241.242 198.738 240.71C198.679 240.179 198.282 239.836 197.751 239.896Z" fill="#84D8FF"/>
<path d="M205.431 234.598C205.233 232.812 203.882 231.831 202.068 232.032C200.078 232.253 199.152 233.488 199.351 235.274L199.731 238.696C199.929 240.482 201.281 241.463 203.094 241.262C204.907 241.06 206.01 239.806 205.811 238.02L205.431 234.598ZM201.332 235.095C201.252 234.372 201.597 233.879 202.265 233.804C202.933 233.73 203.379 234.136 203.459 234.859L203.83 238.199C203.91 238.921 203.565 239.415 202.897 239.489C202.229 239.564 201.784 239.158 201.703 238.435L201.332 235.095Z" fill="#84D8FF"/>
<path d="M110.528 300.952C110.33 299.166 108.978 298.185 107.165 298.386C105.175 298.607 104.249 299.842 104.448 301.628L104.828 305.05C105.026 306.836 106.377 307.817 108.191 307.616C110.004 307.414 111.107 306.16 110.908 304.374L110.528 300.952ZM106.429 301.449C106.349 300.726 106.694 300.233 107.362 300.158C108.03 300.084 108.475 300.49 108.556 301.213L108.927 304.553C109.007 305.275 108.662 305.769 107.994 305.843C107.326 305.918 106.88 305.512 106.8 304.789L106.429 301.449Z" fill="#84D8FF"/>
<path d="M114.593 299.065C114.498 298.206 113.838 297.727 112.965 297.824C112.092 297.921 111.567 298.532 111.662 299.391L111.738 300.072C111.832 300.918 112.479 301.398 113.351 301.301C114.224 301.204 114.763 300.592 114.669 299.747L114.593 299.065ZM112.851 299.162C112.83 298.971 112.912 298.838 113.076 298.82C113.239 298.801 113.362 298.912 113.383 299.103L113.479 299.962C113.5 300.153 113.404 300.287 113.241 300.306C113.077 300.324 112.968 300.212 112.947 300.021L112.851 299.162Z" fill="#84D8FF"/>
<path d="M112.338 272.326C112.383 272.735 112.762 273.038 113.144 272.995L113.253 272.983C113.989 272.901 114.442 273.127 114.531 273.931C114.616 274.695 114.28 275.146 113.585 275.223C112.998 275.289 112.651 275.024 112.464 274.451C112.295 273.931 111.918 273.766 111.427 273.821C110.909 273.878 110.399 274.377 110.646 275.108C111.061 276.36 112.152 277.108 113.815 276.923C115.683 276.716 116.764 275.519 116.585 273.91C116.464 272.819 115.939 272.188 115.245 271.906C115.764 271.489 116.092 270.832 115.987 269.891C115.823 268.419 114.616 267.49 112.817 267.69C111.399 267.848 110.46 268.711 110.208 269.802C110.179 269.916 110.178 270.026 110.19 270.135C110.246 270.64 110.676 271.034 111.235 270.971C111.726 270.917 111.939 270.603 112.088 270.2C112.248 269.782 112.455 269.525 112.959 269.469C113.559 269.402 113.965 269.702 114.036 270.343C114.115 271.052 113.834 271.386 113.085 271.47L112.976 271.482C112.594 271.524 112.291 271.903 112.338 272.326Z" fill="#84D8FF"/>
<path d="M123.587 269.433C123.388 267.647 122.037 266.666 120.224 266.867C118.233 267.089 117.308 268.323 117.506 270.109L117.886 273.531C118.085 275.317 119.436 276.298 121.249 276.097C123.062 275.896 124.165 274.641 123.967 272.855L123.587 269.433ZM119.488 269.93C119.407 269.208 119.753 268.714 120.421 268.64C121.089 268.565 121.534 268.971 121.614 269.694L121.985 273.034C122.066 273.757 121.72 274.25 121.052 274.325C120.384 274.399 119.939 273.993 119.859 273.27L119.488 269.93Z" fill="#84D8FF"/>
<path d="M136.532 245.787C136.338 244.042 135.188 243.135 133.58 243.314C132.98 243.38 132.509 243.612 132.181 243.897L132.051 242.724C131.966 241.961 132.33 241.506 133.052 241.426C133.516 241.375 133.866 241.543 134.054 241.867C134.243 242.205 134.608 242.385 135.004 242.341C135.753 242.258 136.009 241.456 135.732 240.949C135.197 239.987 134.186 239.575 132.836 239.725C130.859 239.945 129.885 241.24 130.093 243.108L130.464 246.448C130.671 248.315 132.021 249.159 133.821 248.959C135.62 248.759 136.738 247.641 136.532 245.787ZM133.362 244.953C134.057 244.875 134.425 245.331 134.507 246.067C134.587 246.79 134.276 247.225 133.608 247.299C132.968 247.37 132.533 247.06 132.436 246.187L132.359 245.492C132.554 245.263 132.83 245.012 133.362 244.953Z" fill="#84D8FF"/>
<path d="M143.507 241.479C143.308 239.693 141.957 238.711 140.144 238.913C138.154 239.134 137.228 240.369 137.427 242.155L137.807 245.577C138.005 247.362 139.356 248.344 141.17 248.143C142.983 247.941 144.086 246.687 143.887 244.901L143.507 241.479ZM139.408 241.976C139.328 241.253 139.673 240.759 140.341 240.685C141.009 240.611 141.454 241.017 141.535 241.74L141.906 245.08C141.986 245.802 141.641 246.296 140.973 246.37C140.305 246.444 139.859 246.039 139.779 245.316L139.408 241.976Z" fill="#84D8FF"/>
<path d="M162.867 229.474C162.172 229.551 161.803 229.095 161.722 228.359C161.641 227.636 161.952 227.202 162.62 227.127C163.261 227.056 163.705 227.449 163.823 228.512L163.87 228.935C163.674 229.163 163.399 229.415 162.867 229.474ZM159.696 228.639C159.89 230.384 161.04 231.292 162.649 231.113C163.249 231.046 163.72 230.814 164.047 230.53L164.177 231.702C164.262 232.466 163.898 232.92 163.176 233C162.712 233.052 162.362 232.884 162.175 232.559C161.985 232.222 161.62 232.041 161.225 232.085C160.475 232.169 160.219 232.97 160.496 233.477C161.031 234.439 162.043 234.851 163.392 234.701C165.369 234.482 166.343 233.187 166.136 231.319L165.795 228.251C165.563 226.166 164.207 225.267 162.408 225.467C160.649 225.663 159.49 226.785 159.696 228.639Z" stroke="#DDF4FF" stroke-width="3.26601" mask="url(#path-17-outside-3_736_6700)"/>
<path d="M173.284 227.198C173.085 225.413 171.734 224.431 169.921 224.632C167.93 224.854 167.005 226.088 167.203 227.874L167.584 231.296C167.782 233.082 169.133 234.064 170.946 233.862C172.76 233.661 173.862 232.406 173.664 230.62L173.284 227.198ZM169.185 227.695C169.104 226.973 169.45 226.479 170.118 226.405C170.786 226.33 171.231 226.736 171.311 227.459L171.683 230.799C171.763 231.522 171.418 232.016 170.749 232.09C170.081 232.164 169.636 231.758 169.556 231.035L169.185 227.695Z" stroke="#DDF4FF" stroke-width="3.26601" mask="url(#path-17-outside-3_736_6700)"/>
<path d="M185.638 234.893C185.695 235.411 186.076 235.727 186.594 235.67L187.316 235.59L187.924 241.056L187.16 241.141C186.67 241.196 186.383 241.6 186.439 242.105C186.494 242.595 186.862 242.927 187.353 242.873L190.911 242.477C191.402 242.423 191.688 242.018 191.633 241.528C191.579 241.037 191.209 240.691 190.719 240.746L189.901 240.837L189.193 234.47C189.136 233.952 188.757 233.649 188.239 233.707L186.398 233.911C185.88 233.969 185.58 234.375 185.638 234.893Z" stroke="#DDF4FF" stroke-width="3.26601" mask="url(#path-17-outside-3_736_6700)"/>
<path d="M197.751 239.896L194.601 240.245C194.61 240.079 194.671 239.755 195.075 239.42L196.53 238.223C197.567 237.376 198.099 236.448 197.947 235.085C197.775 233.53 196.49 232.652 194.677 232.853C193.177 233.02 191.897 234.045 191.908 235.383C191.911 235.907 192.355 236.299 192.914 236.237C193.391 236.184 193.661 236.003 193.773 235.521C193.895 235.01 194.206 234.7 194.792 234.635C195.474 234.559 195.84 234.877 195.901 235.422C195.984 236.172 195.572 236.687 195.092 237.086L193.549 238.347C192.385 239.305 192.376 240.341 192.502 241.472L192.509 241.541C192.559 241.99 192.893 242.257 193.343 242.207L197.951 241.695C198.482 241.636 198.797 241.242 198.738 240.71C198.679 240.179 198.282 239.836 197.751 239.896Z" stroke="#DDF4FF" stroke-width="3.26601" mask="url(#path-17-outside-3_736_6700)"/>
<path d="M205.431 234.598C205.233 232.812 203.882 231.831 202.068 232.032C200.078 232.253 199.152 233.488 199.351 235.274L199.731 238.696C199.929 240.482 201.281 241.463 203.094 241.262C204.907 241.06 206.01 239.806 205.811 238.02L205.431 234.598ZM201.332 235.095C201.252 234.372 201.597 233.879 202.265 233.804C202.933 233.73 203.379 234.136 203.459 234.859L203.83 238.199C203.91 238.921 203.565 239.415 202.897 239.489C202.229 239.564 201.784 239.158 201.703 238.435L201.332 235.095Z" stroke="#DDF4FF" stroke-width="3.26601" mask="url(#path-17-outside-3_736_6700)"/>
<path d="M110.528 300.952C110.33 299.166 108.978 298.185 107.165 298.386C105.175 298.607 104.249 299.842 104.448 301.628L104.828 305.05C105.026 306.836 106.377 307.817 108.191 307.616C110.004 307.414 111.107 306.16 110.908 304.374L110.528 300.952ZM106.429 301.449C106.349 300.726 106.694 300.233 107.362 300.158C108.03 300.084 108.475 300.49 108.556 301.213L108.927 304.553C109.007 305.275 108.662 305.769 107.994 305.843C107.326 305.918 106.88 305.512 106.8 304.789L106.429 301.449Z" stroke="#DDF4FF" stroke-width="3.26601" mask="url(#path-17-outside-3_736_6700)"/>
<path d="M114.593 299.065C114.498 298.206 113.838 297.727 112.965 297.824C112.092 297.921 111.567 298.532 111.662 299.391L111.738 300.072C111.832 300.918 112.479 301.398 113.351 301.301C114.224 301.204 114.763 300.592 114.669 299.747L114.593 299.065ZM112.851 299.162C112.83 298.971 112.912 298.838 113.076 298.82C113.239 298.801 113.362 298.912 113.383 299.103L113.479 299.962C113.5 300.153 113.404 300.287 113.241 300.306C113.077 300.324 112.968 300.212 112.947 300.021L112.851 299.162Z" stroke="#DDF4FF" stroke-width="3.26601" mask="url(#path-17-outside-3_736_6700)"/>
<path d="M112.338 272.326C112.383 272.735 112.762 273.038 113.144 272.995L113.253 272.983C113.989 272.901 114.442 273.127 114.531 273.931C114.616 274.695 114.28 275.146 113.585 275.223C112.998 275.289 112.651 275.024 112.464 274.451C112.295 273.931 111.918 273.766 111.427 273.821C110.909 273.878 110.399 274.377 110.646 275.108C111.061 276.36 112.152 277.108 113.815 276.923C115.683 276.716 116.764 275.519 116.585 273.91C116.464 272.819 115.939 272.188 115.245 271.906C115.764 271.489 116.092 270.832 115.987 269.891C115.823 268.419 114.616 267.49 112.817 267.69C111.399 267.848 110.46 268.711 110.208 269.802C110.179 269.916 110.178 270.026 110.19 270.135C110.246 270.64 110.676 271.034 111.235 270.971C111.726 270.917 111.939 270.603 112.088 270.2C112.248 269.782 112.455 269.525 112.959 269.469C113.559 269.402 113.965 269.702 114.036 270.343C114.115 271.052 113.834 271.386 113.085 271.47L112.976 271.482C112.594 271.524 112.291 271.903 112.338 272.326Z" stroke="#DDF4FF" stroke-width="3.26601" mask="url(#path-17-outside-3_736_6700)"/>
<path d="M123.587 269.433C123.388 267.647 122.037 266.666 120.224 266.867C118.233 267.089 117.308 268.323 117.506 270.109L117.886 273.531C118.085 275.317 119.436 276.298 121.249 276.097C123.062 275.896 124.165 274.641 123.967 272.855L123.587 269.433ZM119.488 269.93C119.407 269.208 119.753 268.714 120.421 268.64C121.089 268.565 121.534 268.971 121.614 269.694L121.985 273.034C122.066 273.757 121.72 274.25 121.052 274.325C120.384 274.399 119.939 273.993 119.859 273.27L119.488 269.93Z" stroke="#DDF4FF" stroke-width="3.26601" mask="url(#path-17-outside-3_736_6700)"/>
<path d="M136.532 245.787C136.338 244.042 135.188 243.135 133.58 243.314C132.98 243.38 132.509 243.612 132.181 243.897L132.051 242.724C131.966 241.961 132.33 241.506 133.052 241.426C133.516 241.375 133.866 241.543 134.054 241.867C134.243 242.205 134.608 242.385 135.004 242.341C135.753 242.258 136.009 241.456 135.732 240.949C135.197 239.987 134.186 239.575 132.836 239.725C130.859 239.945 129.885 241.24 130.093 243.108L130.464 246.448C130.671 248.315 132.021 249.159 133.821 248.959C135.62 248.759 136.738 247.641 136.532 245.787ZM133.362 244.953C134.057 244.875 134.425 245.331 134.507 246.067C134.587 246.79 134.276 247.225 133.608 247.299C132.968 247.37 132.533 247.06 132.436 246.187L132.359 245.492C132.554 245.263 132.83 245.012 133.362 244.953Z" stroke="#DDF4FF" stroke-width="3.26601" mask="url(#path-17-outside-3_736_6700)"/>
<path d="M143.507 241.479C143.308 239.693 141.957 238.711 140.144 238.913C138.154 239.134 137.228 240.369 137.427 242.155L137.807 245.577C138.005 247.362 139.356 248.344 141.17 248.143C142.983 247.941 144.086 246.687 143.887 244.901L143.507 241.479ZM139.408 241.976C139.328 241.253 139.673 240.759 140.341 240.685C141.009 240.611 141.454 241.017 141.535 241.74L141.906 245.08C141.986 245.802 141.641 246.296 140.973 246.37C140.305 246.444 139.859 246.039 139.779 245.316L139.408 241.976Z" stroke="#DDF4FF" stroke-width="3.26601" mask="url(#path-17-outside-3_736_6700)"/>
<circle r="1.633" transform="matrix(-0.993883 0.110435 0.110435 0.993883 165.899 221.008)" fill="#84D8FF"/>
<circle r="1.633" transform="matrix(-0.993883 0.110435 0.110435 0.993883 129.736 235.392)" fill="#84D8FF"/>
<circle r="1.633" transform="matrix(-0.993883 0.110435 0.110435 0.993883 106.413 265.379)" fill="#84D8FF"/>
<circle r="2.72167" transform="matrix(-0.993883 0.110435 0.110435 0.993883 100.291 303.57)" fill="#84D8FF" stroke="white" stroke-width="2.17734"/>
<circle r="2.17734" transform="matrix(-0.993883 0.110435 0.110435 0.993883 248.03 287.153)" fill="#CFCFCF" stroke="white" stroke-width="1.08867"/>
<circle r="1.633" transform="matrix(-0.993883 0.110435 0.110435 0.993883 233.673 251.238)" fill="#CFCFCF"/>
<circle r="1.633" transform="matrix(-0.993883 0.110435 0.110435 0.993883 203.605 227.184)" fill="#84D8FF"/>
<circle opacity="0.2" r="1.08867" transform="matrix(-0.943972 0.330026 0.330026 0.943972 146.702 225.143)" fill="#1CB0F6"/>
<circle opacity="0.2" r="1.08867" transform="matrix(-0.943972 0.330026 0.330026 0.943972 115.998 249.298)" fill="#1CB0F6"/>
<circle opacity="0.2" r="1.08867" transform="matrix(-0.943972 0.330026 0.330026 0.943972 102.622 282.9)" fill="#1CB0F6"/>
<circle opacity="0.2" r="1.08867" transform="matrix(-0.943972 0.330026 0.330026 0.943972 241.691 268.55)" fill="#AFAFAF"/>
<circle r="2.17734" transform="matrix(-0.943972 0.330026 0.330026 0.943972 219.342 237.819)" fill="#1CB0F6" stroke="white" stroke-width="2.17734"/>
<circle opacity="0.2" r="1.08867" transform="matrix(-0.943972 0.330026 0.330026 0.943972 185.256 221.582)" fill="#1CB0F6"/>
<g filter="url(#filter0_i_736_6700)">
<path fill-rule="evenodd" clip-rule="evenodd" d="M194.798 253.658C192.464 254.078 191.746 257.073 193.636 258.506L196.227 260.47L171.455 293.152C170.032 295.03 170.401 297.705 172.278 299.128C174.155 300.551 176.83 300.182 178.253 298.305L203.025 265.623L206.149 267.991C208.039 269.423 210.729 267.922 210.502 265.561L209.394 254.026C209.242 252.442 207.77 251.326 206.204 251.607L194.798 253.658Z" fill="#1CB0F6"/>
</g>
<path fill-rule="evenodd" clip-rule="evenodd" d="M131.988 309.847C133.899 311.251 136.566 309.709 136.304 307.353L135.995 304.568L177.128 299.998C179.469 299.738 181.156 297.629 180.896 295.288C180.636 292.947 178.527 291.26 176.186 291.52L135.053 296.091L134.57 291.747C134.309 289.39 131.368 288.472 129.812 290.262L122.207 299.006C121.163 300.206 121.367 302.043 122.649 302.985L131.988 309.847Z" fill="#84D8FF"/>
<g filter="url(#filter1_i_736_6700)">
<circle cx="174.714" cy="296.656" r="8.70936" transform="rotate(-6.34036 174.714 296.656)" fill="#1CB0F6"/>
</g>
<circle cx="174.714" cy="296.656" r="9.79803" transform="rotate(-6.34036 174.714 296.656)" stroke="white" stroke-width="2.17734"/>
</g>
<rect x="45.8351" y="54.7454" width="201.846" height="439.72" rx="26.86" transform="rotate(-6.34036 45.8351 54.7454)" stroke="#2A2A2A" stroke-width="2.28"/>
<path d="M101.68 45.9028L101.526 48.1453L101.642 48.1749C103.956 48.761 105.663 50.7207 105.927 53.0927L106.221 55.7417C106.941 62.2205 112.777 66.889 119.255 66.1691L177.532 59.6938C184.01 58.9739 188.679 53.1382 187.959 46.6594L187.665 44.0105C187.401 41.6385 188.637 39.3517 190.765 38.2721L190.872 38.2177L190.229 36.0637L101.68 45.9028Z" fill="#4B4B4B" stroke="#2A2A2A" stroke-width="2.28448"/>
<rect x="121.568" y="45.6084" width="48.7355" height="3.04597" rx="1.52298" transform="rotate(-6.34036 121.568 45.6084)" fill="#2B2B2B"/>
<rect x="95.9196" y="42.3281" width="97.4709" height="5.33044" transform="rotate(-6.34036 95.9196 42.3281)" fill="#4B4B4B"/>
</g>
</g>
<defs>
<filter id="filter0_i_736_6700" x="170.589" y="251.563" width="39.9268" height="48.4307" filterUnits="userSpaceOnUse" color-interpolation-filters="sRGB">
<feFlood flood-opacity="0" result="BackgroundImageFix"/>
<feBlend mode="normal" in="SourceGraphic" in2="BackgroundImageFix" result="shape"/>
<feColorMatrix in="SourceAlpha" type="matrix" values="0 0 0 0 0 0 0 0 0 0 0 0 0 0 0 0 0 0 127 0" result="hardAlpha"/>
<feOffset dy="-4.27"/>
<feComposite in2="hardAlpha" operator="arithmetic" k2="-1" k3="1"/>
<feColorMatrix type="matrix" values="0 0 0 0 0 0 0 0 0 0 0 0 0 0 0 0 0 0 0.13 0"/>
<feBlend mode="normal" in2="shape" result="effect1_innerShadow_736_6700"/>
</filter>
<filter id="filter1_i_736_6700" x="163.827" y="285.769" width="21.7754" height="21.7754" filterUnits="userSpaceOnUse" color-interpolation-filters="sRGB">
<feFlood flood-opacity="0" result="BackgroundImageFix"/>
<feBlend mode="normal" in="SourceGraphic" in2="BackgroundImageFix" result="shape"/>
<feColorMatrix in="SourceAlpha" type="matrix" values="0 0 0 0 0 0 0 0 0 0 0 0 0 0 0 0 0 0 127 0" result="hardAlpha"/>
<feOffset dy="-6.53202"/>
<feComposite in2="hardAlpha" operator="arithmetic" k2="-1" k3="1"/>
<feColorMatrix type="matrix" values="0 0 0 0 0 0 0 0 0 0 0 0 0 0 0 0 0 0 0.1259 0"/>
<feBlend mode="normal" in2="shape" result="effect1_innerShadow_736_6700"/>
</filter>
<clipPath id="clip0_736_6700">
<rect width="325" height="325" fill="white"/>
</clipPath>
<clipPath id="clip1_736_6700">
<rect width="228" height="323.764" fill="white" transform="translate(31 44.1787) rotate(-6.34036)"/>
</clipPath>
<clipPath id="clip2_736_6700">
<rect x="44.5762" y="53.7383" width="204.126" height="442" rx="28" transform="rotate(-6.34036 44.5762 53.7383)" fill="white"/>
</clipPath>
</defs>
</svg>
