<svg width="325" height="325" viewBox="0 0 325 325" fill="none" xmlns="http://www.w3.org/2000/svg">
<g clip-path="url(#clip0_736_6800)">
<rect x="26.2514" y="43.0215" width="226.163" height="466.849" rx="35.8663" transform="rotate(-5.77612 26.2514 43.0215)" fill="#4B4B4B" stroke="#2B2B2B" stroke-width="2.28448"/>
<g clip-path="url(#clip1_736_6800)">
<rect x="38.5818" y="52.6875" width="204.126" height="442" rx="28" transform="rotate(-5.77612 38.5818 52.6875)" fill="white"/>
<path d="M94.2027 112.669C94.2143 112.589 94.2064 112.511 94.1985 112.433C94.1235 111.692 93.501 111.184 92.7601 111.259C92.1167 111.324 91.6532 111.804 91.5993 112.44L91.0479 119.645L89.2348 113.014C89.0194 112.248 88.3637 111.802 87.5839 111.881C86.804 111.96 86.2509 112.528 86.1933 113.321L85.7333 120.261L83.791 113.328C83.607 112.677 83.0118 112.245 82.3294 112.314C81.5691 112.391 81.0258 113.056 81.1027 113.817C81.1126 113.914 81.1224 114.012 81.1478 114.068L84.4115 123.94C84.6659 124.703 85.3216 125.148 86.1014 125.069C86.8813 124.991 87.4344 124.423 87.492 123.629L87.9851 116.626L89.8706 123.388C90.0859 124.154 90.7611 124.598 91.541 124.519C92.3208 124.44 92.874 123.872 92.9705 123.075L94.2027 112.669Z" fill="#4B4B4B"/>
<path d="M98.3762 114.807C98.1571 114.199 97.5915 114.059 97.0651 114.112C96.2657 114.193 95.8335 114.788 95.9144 115.588L96.6283 122.646C96.7092 123.445 97.3493 123.932 98.1486 123.851C98.948 123.77 99.4387 123.169 99.3578 122.369L98.9022 117.866C98.7997 116.852 99.5265 116.444 100.199 116.277C100.891 116.109 101.376 115.646 101.299 114.886C101.228 114.184 100.633 113.751 99.97 113.819C99.3657 113.88 98.8281 114.407 98.4857 115.111L98.3762 114.807Z" fill="#4B4B4B"/>
<path d="M102.116 111.139C102.201 111.978 102.931 112.574 103.769 112.489C104.608 112.404 105.204 111.674 105.119 110.836C105.034 109.997 104.304 109.402 103.466 109.486C102.627 109.571 102.031 110.301 102.116 111.139ZM103.864 113.425C103.065 113.505 102.554 114.109 102.635 114.908L103.349 121.966C103.43 122.765 104.051 123.254 104.85 123.173C105.649 123.092 106.16 122.489 106.079 121.69L105.365 114.632C105.284 113.832 104.663 113.344 103.864 113.425Z" fill="#4B4B4B"/>
<path d="M106.669 114.5C106.738 115.182 107.234 115.605 107.916 115.536L108.501 115.477L109.099 121.384C109.18 122.183 109.781 122.674 110.58 122.593C111.38 122.512 111.909 121.907 111.828 121.108L111.231 115.201L111.855 115.137C112.537 115.068 112.938 114.555 112.869 113.873C112.8 113.19 112.304 112.768 111.622 112.837L110.998 112.9L110.86 111.535C110.779 110.736 110.139 110.249 109.34 110.33C108.54 110.411 108.05 111.012 108.131 111.811L108.269 113.176L107.684 113.235C107.001 113.304 106.6 113.818 106.669 114.5Z" fill="#4B4B4B"/>
<path d="M120.786 117.976C120.221 118.033 119.993 118.312 119.709 118.814C119.458 119.253 119.178 119.596 118.534 119.662C117.657 119.75 117.093 119.236 117.008 118.398L116.925 117.579L120.668 117.2C121.468 117.119 121.964 116.577 121.878 115.719L121.85 115.446C121.609 113.067 119.896 111.704 117.634 111.933C115.295 112.17 113.85 113.852 114.09 116.231L114.307 118.376C114.548 120.754 116.281 122.115 118.699 121.871C120.317 121.707 121.652 120.882 122.011 119.566C122.253 118.655 121.586 117.895 120.786 117.976ZM116.728 115.629C116.645 114.81 117.054 114.178 117.853 114.097C118.614 114.02 119.141 114.558 119.223 115.377L119.237 115.513L116.742 115.766L116.728 115.629Z" fill="#4B4B4B"/>
<path d="M125.975 112.547C126.045 113.229 126.54 113.652 127.223 113.583L127.808 113.524L128.405 119.431C128.486 120.231 129.087 120.721 129.886 120.64C130.686 120.56 131.215 119.954 131.135 119.155L130.537 113.248L131.161 113.185C131.843 113.115 132.244 112.602 132.175 111.92C132.106 111.237 131.611 110.815 130.928 110.884L130.304 110.947L130.166 109.582C130.085 108.783 129.445 108.296 128.646 108.377C127.847 108.458 127.356 109.059 127.437 109.858L127.575 111.223L126.99 111.282C126.308 111.351 125.906 111.865 125.975 112.547Z" fill="#4B4B4B"/>
<path d="M135.694 120.053C136.494 119.972 137.004 119.369 136.923 118.57L136.446 113.851C136.363 113.033 136.811 112.396 137.61 112.315C138.409 112.235 138.897 112.776 138.98 113.595L139.458 118.313C139.538 119.113 140.14 119.603 140.958 119.52C141.758 119.44 142.268 118.836 142.187 118.037L141.69 113.124C141.481 111.057 140.372 109.633 138.208 109.852C137.272 109.947 136.586 110.371 136.15 110.927L135.84 107.866C135.759 107.067 135.139 106.578 134.339 106.659C133.54 106.74 133.03 107.343 133.111 108.142L134.193 118.846C134.274 119.645 134.875 120.136 135.694 120.053Z" fill="#4B4B4B"/>
<path d="M150.222 114.999C149.656 115.056 149.428 115.335 149.144 115.836C148.893 116.275 148.613 116.619 147.969 116.684C147.092 116.773 146.528 116.259 146.443 115.42L146.36 114.601L150.104 114.223C150.903 114.142 151.4 113.599 151.313 112.741L151.285 112.468C151.045 110.09 149.331 108.727 147.07 108.956C144.73 109.192 143.285 110.875 143.526 113.253L143.743 115.398C143.983 117.777 145.716 119.138 148.134 118.893C149.752 118.729 151.087 117.905 151.446 116.588C151.689 115.678 151.021 114.918 150.222 114.999ZM146.163 112.652C146.08 111.833 146.489 111.201 147.288 111.12C148.049 111.043 148.576 111.58 148.659 112.399L148.673 112.536L146.177 112.788L146.163 112.652Z" fill="#4B4B4B"/>
<path d="M160.859 115.203C160.06 115.284 159.572 114.742 159.489 113.923L159.248 111.545C159.165 110.726 159.535 110.098 160.335 110.017C161.134 109.936 161.7 110.47 161.783 111.288L162.023 113.667C162.106 114.486 161.659 115.122 160.859 115.203ZM162.528 116.511C162.819 117.053 163.293 117.261 163.839 117.206C164.638 117.125 165.071 116.53 164.99 115.73L164.276 108.673C164.195 107.873 163.652 107.377 162.853 107.458C162.307 107.513 161.884 107.812 161.707 108.401L161.678 108.502C161.151 107.965 160.367 107.611 159.353 107.713C157.189 107.932 156.298 109.637 156.519 111.821L156.759 114.199C156.98 116.383 158.195 117.875 160.359 117.656C161.373 117.554 162.072 117.069 162.479 116.418L162.528 116.511Z" fill="#4B4B4B"/>
<path d="M168.956 107.667C168.721 107.1 168.191 106.918 167.645 106.973C166.846 107.054 166.413 107.649 166.494 108.448L167.208 115.506C167.289 116.305 167.89 116.796 168.709 116.713C169.508 116.632 170.019 116.029 169.938 115.23L169.46 110.512C169.378 109.693 169.825 109.057 170.625 108.976C171.424 108.895 171.912 109.437 171.995 110.255L172.472 114.974C172.553 115.773 173.174 116.262 173.973 116.181C174.772 116.1 175.283 115.497 175.202 114.697L174.705 109.784C174.496 107.718 173.387 106.294 171.222 106.513C170.189 106.617 169.433 107.127 169.009 107.8L168.956 107.667Z" fill="#4B4B4B"/>
<path d="M180.719 111.894C181.382 112.024 181.64 112.234 181.679 112.624C181.737 113.189 181.374 113.502 180.477 113.593C179.776 113.664 179.313 113.376 179.001 113.013C178.577 112.524 178.306 112.374 177.818 112.424C176.922 112.514 176.507 113.482 176.871 114.154C177.473 115.236 178.926 115.778 180.7 115.599C183.098 115.356 184.393 113.945 184.208 112.112C184.02 110.26 182.645 109.71 181.177 109.405L179.87 109.144C179.086 108.987 178.98 108.722 178.955 108.468C178.913 108.059 179.311 107.703 180.032 107.63C180.539 107.579 180.845 107.686 181.257 108.058C181.712 108.465 181.973 108.714 182.578 108.653C183.592 108.551 183.9 107.318 183.322 106.667C182.569 105.837 181.371 105.486 179.792 105.646C177.53 105.874 176.307 107.416 176.461 108.937C176.619 110.497 177.702 111.273 179.05 111.551L180.719 111.894Z" fill="#4B4B4B"/>
<path d="M197.229 105.851C197.304 105.43 197.279 105.177 197.177 104.951C196.946 104.423 196.417 104.062 195.813 104.124C195.111 104.195 194.71 104.708 194.635 105.326L193.962 110.357L192.354 105.557C192.133 104.929 191.563 104.553 190.9 104.621C190.237 104.688 189.774 105.168 189.683 105.827L189.053 110.893L187.458 106.229C187.259 105.619 186.786 105.037 185.967 105.119C185.226 105.194 184.685 105.879 184.76 106.62C184.77 106.718 184.782 106.835 184.858 107.004L187.632 113.598C187.92 114.297 188.572 114.704 189.312 114.629C190.053 114.554 190.61 114.025 190.713 113.286L191.311 109.07L192.76 113.079C193.008 113.783 193.66 114.189 194.401 114.114C195.142 114.039 195.699 113.51 195.84 112.767L197.229 105.851Z" fill="#4B4B4B"/>
<path d="M205.379 109.419C204.814 109.476 204.586 109.755 204.302 110.257C204.051 110.696 203.771 111.039 203.127 111.105C202.25 111.193 201.686 110.679 201.601 109.841L201.518 109.022L205.261 108.643C206.061 108.562 206.557 108.02 206.471 107.162L206.443 106.889C206.202 104.51 204.489 103.147 202.227 103.376C199.888 103.613 198.443 105.295 198.683 107.674L198.9 109.819C199.141 112.197 200.874 113.558 203.292 113.314C204.91 113.15 206.245 112.325 206.604 111.009C206.846 110.098 206.179 109.338 205.379 109.419ZM201.321 107.072C201.238 106.253 201.647 105.621 202.446 105.54C203.207 105.463 203.734 106.001 203.816 106.82L203.83 106.956L201.335 107.209L201.321 107.072Z" fill="#4B4B4B"/>
<path d="M210.481 103.467C210.262 102.859 209.697 102.719 209.17 102.772C208.371 102.853 207.939 103.448 208.02 104.248L208.734 111.306C208.814 112.105 209.455 112.592 210.254 112.511C211.053 112.43 211.544 111.829 211.463 111.029L211.007 106.526C210.905 105.512 211.632 105.104 212.304 104.937C212.996 104.769 213.481 104.306 213.404 103.546C213.333 102.844 212.738 102.411 212.075 102.479C211.471 102.54 210.933 103.067 210.591 103.771L210.481 103.467Z" fill="#4B4B4B"/>
<rect x="79.4497" y="78.0977" width="149.675" height="10.8867" rx="5.44335" transform="rotate(-5.77612 79.4497 78.0977)" fill="#E5E5E5"/>
<rect x="79.45" y="78.0977" width="32.9867" height="10.8867" rx="5.44335" transform="rotate(-5.77612 79.45 78.0977)" fill="#58CC02"/>
<rect x="85.3811" y="80.7803" width="21.0601" height="2.72167" rx="1.36084" transform="rotate(-5.77612 85.3811 80.7803)" fill="white" fill-opacity="0.2"/>
<line x1="59.4283" y1="81.2171" x2="68.4759" y2="88.6025" stroke="#AFAFAF" stroke-width="2.17734" stroke-linecap="round" stroke-linejoin="round"/>
<line x1="60.3523" y1="89.4243" x2="67.7376" y2="80.3766" stroke="#AFAFAF" stroke-width="2.17734" stroke-linecap="round"/>
<rect x="73.3045" y="210.625" width="170.921" height="157.857" rx="7.62069" transform="rotate(-5.77612 73.3045 210.625)" fill="#F7F7F7" stroke="#E5E5E5" stroke-width="2.17734"/>
<path d="M158.016 247.393C159.469 248.241 160.667 249.332 161.61 250.666C162.609 251.933 163.435 253.341 164.089 254.892C164.737 256.38 165.271 257.973 165.692 259.671C166.167 261.302 166.575 262.877 166.916 264.397C166.518 266.612 165.681 268.78 164.403 270.898C163.125 273.017 161.53 274.763 159.618 276.138C157.915 277.74 156.384 279.2 155.026 280.519C153.722 281.77 152.105 282.679 150.173 283.248C149.731 283.79 149.285 284.301 148.836 284.781C148.443 285.194 148.093 285.727 147.786 286.38C149.118 289.104 150.478 291.795 151.866 294.452C153.254 297.109 154.3 300.081 155.006 303.366C154.311 303.872 153.976 304.558 154.002 305.426C154.027 306.294 154.09 307.22 154.19 308.204C153.538 309.141 153.078 310.12 152.808 311.142C152.532 312.102 152.029 312.961 151.297 313.719C151.125 313.861 150.913 313.913 150.66 313.876C150.463 313.772 150.279 313.791 150.107 313.932C149.35 314.444 148.576 315.082 147.783 315.846C147.051 316.604 146.267 317.149 145.43 317.483C143.874 318.075 142.262 318.425 140.594 318.531C138.988 318.632 137.394 318.544 135.812 318.269C134.292 317.988 132.848 317.543 131.481 316.935C130.108 316.266 128.876 315.458 127.786 314.512C126.985 313.35 126.303 312.144 125.742 310.896C125.174 309.585 124.348 308.488 123.264 307.603C122.757 305.665 122.336 303.345 122.001 300.644C121.727 297.936 121.887 295.216 122.48 292.483C122.701 291.59 123.023 290.781 123.447 290.054C123.871 289.327 124.008 288.536 123.86 287.681C124.161 287.588 124.364 287.443 124.468 287.246C124.634 287.043 124.865 286.864 125.16 286.71C125.295 286.199 125.23 285.864 124.965 285.704C124.762 285.538 124.7 285.234 124.78 284.791C123.726 283.592 122.669 282.362 121.609 281.102C120.604 279.773 119.72 278.402 118.955 276.987C118.19 275.573 117.662 274.041 117.371 272.392C117.08 270.743 117.176 268.931 117.66 266.955C117.567 266.032 117.646 264.967 117.897 263.76C118.209 262.547 118.648 261.353 119.213 260.177C119.777 259.001 120.447 257.939 121.221 256.99C121.989 255.98 122.875 255.206 123.877 254.67C123.834 254.239 123.901 253.984 124.08 253.903C124.313 253.755 124.408 253.466 124.365 253.035C125.14 252.708 125.847 252.326 126.487 251.888C127.126 251.45 127.769 251.044 128.415 250.667C129.116 250.224 129.854 249.838 130.629 249.511C131.459 249.116 132.425 248.832 133.526 248.658C135.483 248.336 137.495 248.257 139.563 248.421C141.693 248.578 143.509 249.016 145.011 249.735C145.789 251.272 146.67 252.613 147.656 253.756C148.704 254.894 149.496 255.964 150.032 256.966C150.249 257.877 150.456 258.695 150.654 259.421C150.845 260.085 150.975 260.756 151.044 261.433C151.112 262.11 151.091 262.827 150.981 263.584C150.865 264.279 150.608 265.114 150.209 266.086C151.408 265.654 152.374 265.059 153.105 264.302C153.898 263.538 154.445 262.488 154.745 261.152C154.639 260.106 154.272 259.241 153.644 258.559C153.015 257.877 152.5 257.09 152.099 256.198C152.45 255.976 152.674 255.735 152.772 255.477C152.864 255.157 152.864 254.846 152.771 254.544C152.679 254.243 152.555 253.945 152.401 253.649C152.308 253.348 152.246 253.043 152.215 252.736C152.572 252.575 152.818 252.55 152.954 252.661C153.089 252.772 153.24 252.725 153.406 252.522C153.233 252.042 153.116 251.805 153.054 251.812C153.048 251.75 152.995 251.538 152.897 251.175C153.112 250.842 153.388 250.503 153.726 250.158C154.064 249.813 154.406 249.81 154.751 250.148C154.319 249.57 154.23 248.989 154.481 248.404C154.794 247.812 155.212 247.335 155.735 246.971C156.055 247.063 156.375 247.155 156.695 247.247C157.077 247.333 157.517 247.382 158.016 247.393ZM141.462 302.219C141.418 301.788 141.48 301.471 141.646 301.268C141.805 301.003 141.931 300.71 142.023 300.39C141.129 298.926 140.26 297.709 139.416 296.738C138.627 295.698 137.382 294.767 135.683 293.945C134.877 294.586 134.3 295.328 133.95 296.171C133.6 297.015 133.438 297.871 133.464 298.738C133.483 299.544 133.687 300.332 134.076 301.101C134.526 301.863 135.12 302.518 135.86 303.065C136.456 302.818 137.321 302.762 138.453 302.896C139.58 302.968 140.583 302.743 141.462 302.219ZM136.447 275.684C137.32 275.099 138.23 274.571 139.177 274.103C140.125 273.634 141.072 273.165 142.019 272.696C142.966 272.227 143.88 271.731 144.759 271.207C145.632 270.621 146.37 269.925 146.972 269.118C144.634 269.355 142.655 269.151 141.036 268.506C139.478 267.856 138.627 266.512 138.483 264.475C137.578 264.132 136.636 264.04 135.658 264.201C134.674 264.301 133.803 264.607 133.047 265.118C132.284 265.569 131.756 266.181 131.461 266.957C131.16 267.671 131.207 268.444 131.602 269.274C131.51 269.594 131.314 269.801 131.012 269.893C130.704 269.924 130.572 270.155 130.616 270.586C131.626 271.354 132.523 272.227 133.305 273.205C134.149 274.176 135.197 275.003 136.447 275.684Z" fill="#4B4B4B"/>
<path d="M213.459 263.605C213.934 264.614 214.397 265.499 214.847 266.262C215.297 267.024 216.076 267.66 217.184 268.17C217.081 269.61 217.138 270.786 217.355 271.696C217.571 272.607 217.532 273.761 217.239 275.158C216.47 276.168 215.499 277.012 214.324 277.691C213.211 278.363 212.03 278.98 210.782 279.541C209.588 280.035 208.367 280.562 207.119 281.124C205.931 281.679 204.852 282.379 203.881 283.223C203.33 285.765 202.714 288.283 202.034 290.776C201.415 293.263 200.914 295.987 200.529 298.948C200.684 299.243 200.921 299.437 201.241 299.529C201.561 299.62 201.826 299.78 202.035 300.008C201.815 300.9 201.856 301.611 202.158 302.14C202.454 302.607 202.839 303.035 203.313 303.422C203.787 303.809 204.262 304.196 204.736 304.583C205.272 304.964 205.66 305.422 205.901 305.957C205.711 306.536 205.613 307.106 205.607 307.666C205.602 308.226 205.596 308.786 205.591 309.346C205.647 309.9 205.611 310.463 205.482 311.035C205.415 311.601 205.194 312.183 204.819 312.781C203.638 313.397 202.402 313.771 201.11 313.902C199.879 314.026 198.756 314.295 197.741 314.709C196.418 314.532 195.245 313.998 194.222 313.107C193.267 312.271 192.451 311.265 191.772 310.091C191.094 308.916 190.536 307.698 190.097 306.437C189.659 305.176 189.298 304.062 189.013 303.097C189.314 302.382 189.191 302.084 188.643 302.202C188.31 301.365 188.257 300.531 188.483 299.7C188.71 298.869 188.709 298.247 188.481 297.835C188.449 296.285 188.533 294.66 188.734 292.961C188.929 291.201 189.164 289.219 189.438 287.015C188.62 286.911 187.712 286.848 186.715 286.824C185.773 286.733 184.838 286.703 183.908 286.735C183.034 286.699 182.225 286.688 181.48 286.701C180.736 286.714 180.179 286.74 179.81 286.777C178.862 286.624 178.024 286.336 177.298 285.912C176.565 285.427 175.89 284.904 175.274 284.345C174.652 283.724 174.03 283.103 173.407 282.482C172.847 281.855 172.258 281.262 171.642 280.703C171.24 278.568 170.711 276.414 170.056 274.243C169.401 272.071 168.784 269.958 168.203 267.903C167.622 265.848 167.146 263.907 166.774 262.08C166.403 260.252 166.327 258.581 166.547 257.067C167.069 256.082 167.594 255.128 168.122 254.204C168.651 253.28 169.314 252.467 170.114 251.764C170.809 251.881 171.366 252.166 171.785 252.621C172.26 253.008 172.679 253.463 173.042 253.986C173.462 254.441 173.881 254.896 174.3 255.351C174.774 255.738 175.359 255.989 176.054 256.106C176.419 257.25 176.9 258.32 177.498 259.316C178.151 260.245 178.746 261.211 179.283 262.213C179.881 263.209 180.393 264.276 180.819 265.415C181.3 266.485 181.613 267.728 181.756 269.143C182.464 270.004 183.17 270.523 183.871 270.701C184.629 270.81 185.404 270.794 186.198 270.652C186.991 270.509 187.785 270.367 188.579 270.224C189.434 270.076 190.305 270.081 191.191 270.24C191.345 269.914 191.637 269.729 192.068 269.685C192.492 269.58 192.849 269.419 193.138 269.204C193.495 269.043 193.648 268.717 193.598 268.225C193.61 267.726 193.859 267.421 194.345 267.31C194.116 266.276 194.014 265.261 194.037 264.264C194.116 263.199 194.17 262.199 194.2 261.264C194.291 260.322 194.293 259.42 194.206 258.559C194.18 257.691 193.97 256.842 193.575 256.012C194.072 254.78 194.301 253.358 194.263 251.746C194.279 250.066 194.302 248.447 194.331 246.89C194.422 245.327 194.681 243.902 195.111 242.615C195.595 241.261 196.551 240.263 197.978 239.621C201.988 242.386 204.999 246.34 207.011 251.482C206.657 254.129 206.53 256.566 206.632 258.794C206.794 261.015 207.018 263.231 207.304 265.44C208.319 265.026 209.371 264.671 210.46 264.374C211.61 264.072 212.61 263.815 213.459 263.605Z" fill="#4B4B4B"/>
<path d="M97.5367 159.074C97.7856 158.208 98.0307 156.971 97.9296 155.972C97.8049 154.739 96.8912 154.024 95.4921 154.166L85.6648 155.16C84.4323 155.284 83.6904 156.268 83.8151 157.501C83.9398 158.733 84.8602 159.515 86.0928 159.39L92.6887 158.723L88.4383 173.927C87.997 175.553 89.1615 177.085 90.9937 176.899C92.1597 176.781 92.885 175.968 93.1537 174.964L97.5367 159.074Z" fill="#4B4B4B"/>
<path d="M108.742 165.984C107.904 167.011 108.025 168.21 109.052 169.049C110.08 169.887 111.279 169.766 112.117 168.739L113.944 166.501L116.325 168.414C117.352 169.252 118.551 169.131 119.389 168.104C120.228 167.077 120.107 165.877 119.079 165.039L116.698 163.126L118.585 160.815C119.423 159.788 119.302 158.589 118.275 157.75C117.248 156.912 116.049 157.033 115.21 158.06L113.324 160.371L111.119 158.541C110.092 157.703 108.893 157.824 108.055 158.851C107.216 159.879 107.338 161.078 108.365 161.916L110.569 163.746L108.742 165.984Z" fill="#4B4B4B"/>
<path d="M128.336 153.031C128.464 154.297 129.384 155.079 130.65 154.95L132.415 154.772L133.767 168.13L131.901 168.319C130.702 168.44 129.993 169.421 130.118 170.653C130.239 171.852 131.13 172.671 132.329 172.55L141.024 171.67C142.223 171.549 142.932 170.569 142.81 169.369C142.689 168.17 141.795 167.318 140.596 167.439L138.597 167.642L137.023 152.085C136.895 150.819 135.978 150.07 134.712 150.198L130.215 150.653C128.949 150.781 128.207 151.765 128.336 153.031Z" fill="#4B4B4B"/>
<path d="M157.78 165.533L150.085 166.311C150.111 165.905 150.267 165.115 151.262 164.308L154.84 161.422C157.394 159.38 158.714 157.126 158.377 153.795C157.992 149.997 154.878 147.822 150.448 148.27C146.783 148.641 143.634 151.113 143.628 154.378C143.623 155.657 144.697 156.626 146.063 156.488C147.229 156.37 147.891 155.932 148.176 154.759C148.488 153.516 149.253 152.766 150.686 152.621C152.351 152.452 153.239 153.238 153.373 154.57C153.559 156.402 152.541 157.65 151.359 158.61L147.561 161.653C144.698 163.962 144.651 166.491 144.931 169.256L144.948 169.422C145.059 170.522 145.866 171.18 146.965 171.069L158.225 169.93C159.524 169.799 160.303 168.845 160.171 167.546C160.04 166.247 159.08 165.402 157.78 165.533Z" fill="#4B4B4B"/>
<path d="M168.108 153.652C168.232 154.884 169.116 155.636 170.349 155.512L180.143 154.521C181.375 154.396 182.094 153.516 181.969 152.283C181.845 151.051 180.954 150.232 179.722 150.357L169.928 151.348C168.695 151.472 167.983 152.419 168.108 153.652ZM168.954 162.013C169.078 163.246 169.959 163.964 171.191 163.84L180.985 162.849C182.218 162.724 182.936 161.844 182.812 160.611C182.687 159.379 181.797 158.56 180.564 158.685L170.77 159.676C169.537 159.8 168.829 160.781 168.954 162.013Z" fill="#4B4B4B"/>
<rect x="191.777" y="139.666" width="30.4828" height="30.4828" rx="5.44335" transform="rotate(-5.77612 191.777 139.666)" fill="#DDF4FF" stroke="#84D8FF" stroke-width="2.17734"/>
<rect x="163" y="146" width="23" height="21" fill="white"/>
<rect x="107" y="154" width="19" height="20" fill="white"/>
<path d="M168.164 153.895C168.289 155.127 169.173 155.879 170.405 155.755L180.199 154.764C181.432 154.639 182.15 153.759 182.026 152.526C181.901 151.294 181.011 150.475 179.778 150.6L169.984 151.591C168.752 151.715 168.04 152.662 168.164 153.895ZM169.01 162.256C169.135 163.489 170.015 164.208 171.248 164.083L181.042 163.092C182.274 162.967 182.993 162.087 182.868 160.854C182.744 159.622 181.853 158.803 180.621 158.928L170.827 159.919C169.594 160.043 168.885 161.024 169.01 162.256Z" fill="#1CB0F6"/>
<path d="M108.577 165.978C107.739 167.005 107.86 168.204 108.887 169.042C109.915 169.881 111.114 169.76 111.952 168.732L113.779 166.495L116.16 168.408C117.187 169.246 118.386 169.125 119.224 168.098C120.063 167.071 119.942 165.871 118.914 165.033L116.533 163.12L118.42 160.809C119.258 159.782 119.137 158.583 118.11 157.744C117.083 156.906 115.884 157.027 115.045 158.054L113.159 160.365L110.954 158.535C109.927 157.697 108.728 157.818 107.89 158.845C107.051 159.872 107.173 161.072 108.2 161.91L110.404 163.74L108.577 165.978Z" fill="#1CB0F6"/>
</g>
<rect x="39.8307" y="53.707" width="201.846" height="439.72" rx="26.86" transform="rotate(-5.77612 39.8307 53.707)" stroke="#2A2A2A" stroke-width="2.28"/>
<path d="M95.6595 44.4192L95.483 46.6601L95.5994 46.6908C97.907 47.2996 99.595 49.2761 99.8351 51.6506L100.103 54.3023C100.759 60.7879 106.549 65.5137 113.034 64.8576L171.372 58.9565C177.857 58.3005 182.583 52.511 181.927 46.0254L181.659 43.3737C181.419 40.9992 182.676 38.7248 184.815 37.6661L184.923 37.6128L184.302 35.4526L95.6595 44.4192Z" fill="#4B4B4B" stroke="#2A2A2A" stroke-width="2.28448"/>
<rect x="115.549" y="44.3213" width="48.7355" height="3.04597" rx="1.52298" transform="rotate(-5.77612 115.549 44.3213)" fill="#2B2B2B"/>
<rect x="89.9346" y="40.7891" width="97.4709" height="5.33044" transform="rotate(-5.77612 89.9346 40.7891)" fill="#4B4B4B"/>
</g>
<defs>
<clipPath id="clip0_736_6800">
<rect width="325" height="325" fill="white"/>
</clipPath>
<clipPath id="clip1_736_6800">
<rect x="38.5818" y="52.6875" width="204.126" height="442" rx="28" transform="rotate(-5.77612 38.5818 52.6875)" fill="white"/>
</clipPath>
</defs>
</svg>
