<svg width="914" height="408" viewBox="0 0 914 408" fill="none" xmlns="http://www.w3.org/2000/svg">
<g clip-path="url(#clip0_598_6828)">
<path opacity="0.8" d="M372 197.928L161 55.9277L22.9998 118.928L273 259.928L372 197.928Z" fill="url(#paint0_linear_598_6828)"/>
<path opacity="0.8" d="M387.485 269.864L626 88.9278L708 133.928L561.214 378.703L387.485 269.864Z" fill="url(#paint1_linear_598_6828)"/>
<path d="M464.578 310.095C452.199 301.232 453.868 282.339 467.607 275.783L693.626 167.93C700.199 164.793 707.959 165.478 713.882 169.718L805.716 235.467C818.095 244.33 816.427 263.223 802.687 269.779L576.669 377.632C570.095 380.769 562.335 380.084 556.413 375.844L464.578 310.095Z" fill="#4B4B4B"/>
<rect x="456.013" y="261.718" width="25" height="31" fill="#4B4B4B"/>
<rect x="789.013" y="224.718" width="25" height="31" fill="#4B4B4B"/>
<path d="M464.578 280.095C452.199 271.232 453.868 252.339 467.607 245.783L693.626 137.93C700.199 134.793 707.959 135.478 713.882 139.718L805.716 205.467C818.095 214.33 816.427 233.223 802.687 239.779L576.669 347.632C570.095 350.769 562.335 350.084 556.413 345.844L464.578 280.095Z" fill="#636363"/>
<path d="M469.312 274.625C461.231 268.81 462.302 256.47 471.263 252.133L695.822 143.453C700.164 141.352 705.307 141.798 709.222 144.616L799.982 209.937C808.063 215.752 806.993 228.092 798.031 232.429L573.472 341.109C569.131 343.21 563.987 342.764 560.073 339.946L469.312 274.625Z" fill="white"/>
<path opacity="0.2" d="M470.41 274.742L691.419 167.653C696.014 165.427 701.456 165.878 705.621 168.831L795.884 232.821L574.95 340.841C570.317 343.106 564.814 342.641 560.627 339.629L470.41 274.742Z" fill="#1CB0F6"/>
<path opacity="0.2" d="M496.21 293.313L687.229 200.755C691.833 198.525 697.287 198.983 701.454 201.95L765.984 247.892L575.05 341.244C570.402 343.516 564.88 343.04 560.689 340.006L496.21 293.313Z" fill="#1CB0F6"/>
<path d="M371.624 214.379C381.329 209.655 382.407 196.251 373.582 190.036L197.512 66.0405C193.29 63.0669 187.785 62.6241 183.141 64.8844L92.9373 108.794C83.2321 113.519 82.1538 126.923 90.9789 133.137L267.049 257.133C271.271 260.106 276.776 260.549 281.42 258.289L371.624 214.379Z" fill="#4B4B4B"/>
<rect width="20.9157" height="25.9355" transform="matrix(-0.985865 -0.167539 -0.167539 0.985865 384.129 179.533)" fill="#4B4B4B"/>
<rect width="20.9157" height="25.9355" transform="matrix(-0.985865 -0.167539 -0.167539 0.985865 109.562 98.415)" fill="#4B4B4B"/>
<path d="M375.689 190.46C385.394 185.736 386.472 172.332 377.647 166.117L201.577 42.1216C197.355 39.148 191.85 38.7051 187.206 40.9655L97.0022 84.8753C87.2971 89.5996 86.2188 103.004 95.0439 109.219L271.114 233.214C275.336 236.187 280.841 236.63 285.485 234.37L375.689 190.46Z" fill="#636363"/>
<path d="M371.976 186.49C378.442 183.465 379.231 174.584 373.398 170.468L199.913 48.0243C197.186 46.0989 193.635 45.7837 190.61 47.1984L102.087 88.6062C95.6211 91.6309 94.8328 100.512 100.665 104.628L274.15 227.072C276.878 228.997 280.429 229.312 283.453 227.897L371.976 186.49Z" fill="white"/>
<path opacity="0.2" d="M367.174 188.299L202.872 72.6483C199.457 70.2441 195.003 69.8898 191.25 71.7238L109.92 111.47L274.038 227.862C277.48 230.303 281.985 230.654 285.763 228.775L367.174 188.299Z" fill="#1CB0F6"/>
<path opacity="0.2" d="M343.891 199.888L201.884 99.93C198.462 97.521 193.998 97.1704 190.241 99.0156L132.073 127.588L273.905 228.176C277.358 230.624 281.879 230.969 285.663 229.073L343.891 199.888Z" fill="#1CB0F6"/>
<path opacity="0.05" d="M290.772 -39.0813L469 71.9277L425.155 137.749L180 -9.39982L290.772 -39.0813Z" fill="url(#paint2_linear_598_6828)"/>
<path d="M467.888 70.9025L497.414 95.7541C500.868 98.6613 500.8 104.002 497.272 106.819L468.051 130.163C465.441 132.248 461.735 132.249 459.123 130.166L428.785 105.962C425.196 103.099 425.194 97.6436 428.782 94.7778L458.814 70.7863C461.48 68.6569 465.278 68.7055 467.888 70.9025Z" fill="#00C01F"/>
<path d="M458.843 100.53L459.269 70.3984L430.023 93.7619C427.859 95.4905 426.429 97.9735 426.02 100.713L421.601 130.281L458.843 100.53Z" fill="url(#paint3_linear_598_6828)"/>
<path fill-rule="evenodd" clip-rule="evenodd" d="M456.54 72.6023L452.018 105.649L490.835 139.028L492.707 137.533C493.891 136.588 494.685 135.358 495.087 134.031L495.177 134.035L499.803 102.736C500.333 100.257 499.542 97.5437 497.415 95.7531L467.889 70.9015C465.279 68.7045 461.481 68.6559 458.815 70.7853L456.54 72.6023Z" fill="url(#paint4_linear_598_6828)"/>
<path d="M463.321 101.618L492.847 126.47C496.301 129.377 496.233 134.717 492.705 137.535L463.485 160.878C460.874 162.964 457.168 162.965 454.556 160.881L424.219 136.678C420.629 133.814 420.628 128.359 424.215 125.494L454.247 101.502C456.913 99.3727 460.711 99.4213 463.321 101.618Z" fill="url(#paint5_linear_598_6828)"/>
<path d="M452.543 107.46L464.289 117.346C466.378 119.104 466.337 122.334 464.204 124.038L448.452 136.621C446.87 137.885 444.623 137.883 443.044 136.616L431.007 126.961C428.844 125.227 428.848 121.935 431.013 120.205L447.055 107.389C448.667 106.102 450.964 106.131 452.543 107.46Z" fill="#89E305"/>
<path d="M455.179 103.592L459.718 107.412C461.039 108.524 461.013 110.566 459.664 111.644L452.022 117.748C451.024 118.546 449.606 118.546 448.607 117.749L443.944 114.029C442.571 112.933 442.571 110.847 443.943 109.751L451.709 103.547C452.728 102.733 454.181 102.751 455.179 103.592Z" fill="#89E305"/>
<path d="M486.916 130.454L491.455 134.274C492.776 135.386 492.75 137.428 491.401 138.506L483.759 144.61C482.761 145.408 481.343 145.408 480.344 144.611L475.681 140.891C474.308 139.796 474.308 137.71 475.68 136.614L483.446 130.41C484.465 129.595 485.918 129.614 486.916 130.454Z" fill="#89E305"/>
<path d="M451.996 113.07L458.726 118.735C460.149 119.932 460.121 122.131 458.668 123.292L447.938 131.864C446.863 132.722 445.337 132.723 444.261 131.865L437.345 126.347C435.867 125.168 435.867 122.922 437.344 121.742L448.259 113.022C449.357 112.145 450.921 112.165 451.996 113.07Z" fill="white"/>
<path d="M449.247 120.544C448.667 120.081 447.843 120.081 447.263 120.544L443.172 123.813C442.229 124.566 442.229 125.999 443.173 126.751L447.586 130.272C448.272 130.82 449.246 130.819 449.932 130.271L457.151 124.504C458.078 123.763 458.096 122.36 457.189 121.596L455.268 119.98C454.688 119.491 453.844 119.481 453.251 119.954L451.568 121.299C451.166 121.619 450.596 121.62 450.194 121.299L449.247 120.544Z" fill="#404242"/>
<path d="M476.411 127.444L486.406 135.881C488.49 137.641 488.446 140.866 486.315 142.569L471.051 154.762C469.471 156.025 467.226 156.024 465.646 154.76L455.379 146.541C453.213 144.808 453.215 141.513 455.382 139.782L470.919 127.37C472.533 126.081 474.833 126.112 476.411 127.444Z" fill="#89E305"/>
<path d="M474.483 131.028L481.214 136.693C482.636 137.89 482.608 140.089 481.155 141.25L470.425 149.822C469.35 150.68 467.824 150.681 466.748 149.823L459.832 144.305C458.354 143.126 458.354 140.88 459.831 139.7L470.746 130.98C471.844 130.103 473.408 130.123 474.483 131.028Z" fill="white"/>
<path d="M468.936 129.659L462.992 124.638L451.283 132.974L458.686 137.847L468.936 129.659Z" fill="#89E305"/>
<path d="M451.151 134.432L452.855 133.071C453.231 132.771 453.772 132.798 454.117 133.134L458.045 136.966C458.455 137.367 458.422 138.037 457.974 138.395L455.505 140.367C455.155 140.647 454.656 140.645 454.308 140.362L450.953 137.634C450.701 137.429 450.57 137.11 450.606 136.787L450.798 135.072C450.826 134.82 450.953 134.59 451.151 134.432Z" fill="#F49000"/>
<path d="M459.866 134.777L456.746 132.26C456.56 132.11 456.324 132.035 456.085 132.05L453.227 132.236C452.551 132.279 452.135 132.994 452.43 133.604L454.616 138.115C454.771 138.436 455.092 138.643 455.448 138.653L458.756 138.743C459.216 138.756 459.619 138.438 459.715 137.988L460.2 135.719C460.275 135.367 460.146 135.003 459.866 134.777Z" fill="#FFC200"/>
<path d="M467.253 135.198C466.73 134.781 465.989 134.781 465.467 135.198L460.888 138.856C459.945 139.609 459.946 141.043 460.889 141.795L465.302 145.316C465.988 145.863 466.962 145.863 467.648 145.315L474.992 139.448C475.919 138.708 475.937 137.305 475.029 136.541L473.074 134.896C472.436 134.359 471.508 134.347 470.856 134.867L469.535 135.922C469.134 136.243 468.563 136.244 468.161 135.923L467.253 135.198Z" fill="#404242"/>
<path d="M604.102 156.603L652.372 158.822C658.019 159.082 662.017 164.442 660.656 169.928L649.387 215.38C648.38 219.44 644.697 222.264 640.515 222.181L591.932 221.224C586.184 221.111 582.029 215.69 583.413 210.11L594.995 163.397C596.023 159.251 599.835 156.407 604.102 156.603Z" fill="#00C01F"/>
<path d="M617.67 192.936L595.151 162.663L583.872 208.154C583.037 211.519 583.506 215.076 585.185 218.11L603.307 250.864L617.67 192.936Z" fill="url(#paint6_linear_598_6828)"/>
<path fill-rule="evenodd" clip-rule="evenodd" d="M594.117 166.933L614.786 203.224L678.784 206.844L679.506 203.935C679.962 202.094 679.815 200.266 679.204 198.641L679.296 198.576L660.054 163.929C658.69 161.07 655.842 158.983 652.371 158.823L604.101 156.604C599.834 156.408 596.022 159.252 594.994 163.398L594.117 166.933Z" fill="url(#paint7_linear_598_6828)"/>
<path d="M622.952 190.61L671.222 192.829C676.868 193.089 680.867 198.449 679.506 203.935L668.237 249.387C667.23 253.447 663.547 256.27 659.364 256.188L610.782 255.231C605.034 255.118 600.879 249.697 602.262 244.117L613.845 197.404C614.873 193.258 618.685 190.414 622.952 190.61Z" fill="url(#paint8_linear_598_6828)"/>
<path d="M616.688 204.624L635.891 205.506C639.306 205.663 641.724 208.905 640.901 212.223L634.827 236.724C634.216 239.184 631.982 240.893 629.447 240.837L610.132 240.406C606.662 240.329 604.158 237.054 604.994 233.685L611.181 208.733C611.802 206.225 614.108 204.505 616.688 204.624Z" fill="#89E305"/>
<path d="M616.361 198.771L623.781 199.113C625.941 199.212 627.47 201.262 626.95 203.36L624.003 215.246C623.618 216.799 622.209 217.878 620.609 217.847L613.141 217.7C610.943 217.656 609.354 215.583 609.883 213.449L612.878 201.37C613.271 199.784 614.729 198.696 616.361 198.771Z" fill="#89E305"/>
<path d="M668.36 201.305L675.78 201.646C677.939 201.745 679.468 203.795 678.948 205.893L676.001 217.779C675.616 219.332 674.208 220.412 672.608 220.38L665.14 220.233C662.942 220.19 661.353 218.117 661.882 215.983L664.877 203.903C665.27 202.317 666.728 201.23 668.36 201.305Z" fill="#89E305"/>
<path d="M655.627 206.312L671.985 207.087C675.397 207.249 677.809 210.488 676.987 213.803L671.101 237.545C670.491 240.004 668.259 241.712 665.726 241.658L649.263 241.307C645.791 241.233 643.284 237.957 644.12 234.586L650.112 210.42C650.734 207.91 653.044 206.189 655.627 206.312Z" fill="#89E305"/>
<path d="M649.883 214.205L640.152 213.741L634.861 230.942L645.93 230.148L649.883 214.205Z" fill="#89E305"/>
<path d="M635.841 232.494L636.498 229.843C636.643 229.258 637.202 228.873 637.8 228.945L644.623 229.763C645.336 229.849 645.813 230.539 645.64 231.237L644.688 235.077C644.553 235.622 644.055 236 643.494 235.983L638.082 235.826C637.675 235.815 637.303 235.597 637.093 235.249L635.978 233.398C635.814 233.126 635.765 232.801 635.841 232.494Z" fill="#F49000"/>
<path d="M644.765 226.2L639.747 226.074C639.447 226.066 639.156 226.171 638.93 226.369L636.231 228.729C635.593 229.287 635.723 230.314 636.481 230.695L642.088 233.515C642.486 233.716 642.964 233.678 643.325 233.416L646.681 230.987C647.148 230.649 647.307 230.027 647.06 229.507L645.813 226.882C645.62 226.475 645.215 226.212 644.765 226.2Z" fill="#FFC200"/>
<path d="M620.916 217.071L621.65 213.846C621.76 213.362 622.361 213.189 622.712 213.541L634.661 225.534C635.203 226.078 634.487 226.935 633.855 226.498L621.172 217.73C620.96 217.583 620.859 217.323 620.916 217.071Z" fill="#3ACB01"/>
<path d="M622.419 225.45L623.134 223.363C623.238 223.062 623.549 222.885 623.86 222.95L634.13 225.106C634.874 225.262 634.757 226.359 633.996 226.354L623.011 226.285C622.58 226.282 622.279 225.857 622.419 225.45Z" fill="#3ACB01"/>
<path d="M663.012 221.485L663.38 218.198C663.436 217.704 662.925 217.343 662.478 217.56L647.247 224.951C646.556 225.286 646.95 226.331 647.69 226.127L662.553 222.022C662.801 221.954 662.983 221.741 663.012 221.485Z" fill="#3ACB01"/>
<path d="M658.836 228.9L658.848 226.694C658.849 226.376 658.613 226.106 658.298 226.066L647.891 224.72C647.137 224.623 646.887 225.697 647.606 225.943L658.002 229.494C658.41 229.633 658.834 229.331 658.836 228.9Z" fill="#3ACB01"/>
<path opacity="0.05" d="M555.854 -12.3908L672.734 166.972L596.504 242.827L445.081 -42.0723L555.854 -12.3908Z" fill="url(#paint9_linear_598_6828)"/>
<g filter="url(#filter0_f_598_6828)">
<ellipse cx="738.212" cy="111.754" rx="29.3745" ry="13.3505" transform="rotate(-16.797 738.212 111.754)" fill="#B7B7B7"/>
</g>
<g filter="url(#filter1_f_598_6828)">
<ellipse cx="738.213" cy="111.756" rx="19.1867" ry="8.72025" transform="rotate(-16.797 738.213 111.756)" fill="#989898"/>
</g>
<path opacity="0.2" d="M937.15 174.796L746.671 55.8444L707.667 111.564L951.762 296.834L937.15 174.796Z" fill="url(#paint10_linear_598_6828)"/>
<ellipse cx="707.464" cy="73.2875" rx="16.3262" ry="18.2801" transform="rotate(23.0418 707.464 73.2875)" fill="#474B4B"/>
<ellipse cx="702.611" cy="90.4885" rx="11.1478" ry="13.5251" transform="rotate(-6.82808 702.611 90.4885)" fill="#474B4B"/>
<ellipse cx="729.611" cy="57.1577" rx="12.2815" ry="9.72491" transform="rotate(-6.82808 729.611 57.1577)" fill="#474B4B"/>
<circle cx="729.835" cy="85.4005" r="34.6809" transform="rotate(-6.82808 729.835 85.4005)" fill="#DA8E74"/>
<ellipse cx="706.937" cy="72.4687" rx="6.27968" ry="8.29953" transform="rotate(32.5784 706.937 72.4687)" fill="white"/>
<ellipse rx="5.75264" ry="8.29953" transform="matrix(0.579045 0.815295 0.815295 -0.579045 717.95 61.4595)" fill="white"/>
<g filter="url(#filter2_i_598_6828)">
<path d="M700.991 78.7226C702.586 74.9492 710.625 70.5162 713.743 69.751C715.141 69.5836 717.651 68.8465 718.231 66.5829C719.811 56.8778 725.855 54.5308 728.78 54.1805C731.705 53.8303 741.815 56.8739 737.568 70.9844C733.389 84.8692 720.348 90.7908 709.513 90.5206C700.921 90.3064 698.724 84.0879 700.991 78.7226Z" fill="#484F4F"/>
</g>
<ellipse cx="708.067" cy="66.8159" rx="1.95219" ry="1.36514" transform="rotate(-19.9118 708.067 66.8159)" fill="#474B4B"/>
<ellipse cx="714.152" cy="61.3082" rx="1.95219" ry="1.36514" transform="rotate(124.991 714.152 61.3082)" fill="#474B4B"/>
<circle cx="715.042" cy="66.5727" r="4.00164" transform="rotate(-6.82808 715.042 66.5727)" fill="#EB997D"/>
<path fill-rule="evenodd" clip-rule="evenodd" d="M733.958 119.835C752.976 117.557 766.547 100.294 764.27 81.2764C763.157 71.9776 758.46 63.9811 751.728 58.5025C752.557 66.0979 750.967 77.6189 741.389 89.3408C730.956 102.109 713.501 105.447 701.611 105.564C708.74 115.524 720.938 121.394 733.958 119.835Z" fill="url(#paint11_linear_598_6828)"/>
<path d="M744.308 95.1118L734.726 94.7384L742.477 85.0239L745.194 93.9647C745.371 94.5498 744.919 95.1356 744.308 95.1118Z" fill="#DA8E74"/>
<g opacity="0.8" filter="url(#filter3_f_598_6828)">
<path d="M8 251.329L78.248 294.644C79.609 295.484 81.2355 295.782 82.8057 295.479L114.772 289.328L141.453 283.617C144.585 282.947 145.295 278.798 142.565 277.124L66.0572 230.208L8 251.329Z" fill="url(#paint12_linear_598_6828)"/>
</g>
<path d="M108.819 229.753C108.819 235.802 102.213 242.956 96.1637 242.956C90.1145 242.956 80.4441 233.582 84.2727 229.753C89.335 225.074 93.1637 221.032 96.7796 221.032C100.821 221.032 104.735 225.329 108.819 229.753Z" fill="#A46FFF"/>
<path d="M95.5578 227.854C96.4674 223.718 101.728 222.424 104.452 225.667L144.787 273.684C147.694 277.145 145.839 282.455 141.409 283.352L89.6112 293.841C85.3921 294.695 81.6881 290.929 82.6126 286.724L95.5578 227.854Z" fill="url(#paint13_linear_598_6828)"/>
<path d="M93.938 271.088L93.7657 256.785C93.756 255.98 94.3095 255.27 95.1091 255.179C100.523 254.567 108.011 256.858 110.237 262.158L115.131 272.682C115.668 273.835 115.241 274.968 114.009 275.285C111.349 275.969 106.632 276.952 103.055 277.704C96.6679 279.048 94.5765 273.507 93.949 271.17C93.9418 271.143 93.9383 271.116 93.938 271.088Z" fill="white"/>
<circle cx="107.368" cy="268.869" r="5.48138" fill="#414343"/>
<path fill-rule="evenodd" clip-rule="evenodd" d="M114.053 270.362L95.2262 274.3C94.5516 273.151 94.1638 271.971 93.9485 271.169C93.9412 271.142 93.9378 271.116 93.9375 271.088L93.7651 256.784C93.7554 255.98 94.309 255.269 95.1085 255.179C100.523 254.567 108.011 256.857 110.236 262.158L114.053 270.362Z" fill="#A46FFF"/>
<path d="M104.92 288.782L100.963 242.888L98.9748 223.995C98.9515 223.774 98.7253 223.634 98.5168 223.712L91.8566 226.21C91.7545 226.248 91.677 226.333 91.648 226.438L82.9901 257.809C80.1641 268.924 75.5159 291.881 79.2236 294.865C83.8582 298.596 94.2941 295.338 99.9461 293.982C104.468 292.897 105.146 290.063 104.92 288.782Z" fill="#A46FFF"/>
<path d="M53.9832 258.268L90.2536 224.183C92.8456 221.747 97.0174 224.181 96.1716 227.637L79.7538 294.704C79.6901 294.964 79.3641 295.052 79.1781 294.859L53.7297 268.434C50.9681 265.566 51.0821 260.995 53.9832 258.268Z" fill="url(#paint14_linear_598_6828)"/>
<path d="M133.404 264.577L121.747 250.306C121.442 249.932 120.958 249.745 120.485 249.837C111.266 251.624 111.019 258.702 112.09 261.522L117.386 272.284C117.991 273.515 119.302 274.202 120.651 273.953C122.719 273.572 125.99 272.927 129.772 272.079C135.766 270.737 134.634 266.575 133.404 264.577Z" fill="white"/>
<circle cx="120.848" cy="265.794" r="5.48138" fill="#414343"/>
<path fill-rule="evenodd" clip-rule="evenodd" d="M134.119 266.133L116.202 269.88L112.09 261.523C111.019 258.703 111.266 251.625 120.485 249.838C120.958 249.746 121.442 249.933 121.747 250.307L133.404 264.578C133.671 265.012 133.933 265.547 134.119 266.133Z" fill="#A46FFF"/>
<path d="M124.813 276.25C123.48 276.542 120.729 277.937 120.389 281.185" stroke="#F18F83" stroke-width="2.04193" stroke-linecap="round"/>
<path d="M88.9087 225.459C89.7382 224.629 91.8014 222.465 94.9707 221.348C95.6513 221.072 96.7823 220.997 96.9807 221.035L95.4173 228.139L89.7382 227.564L88.9087 225.459Z" fill="url(#paint15_linear_598_6828)"/>
<path d="M106.52 227.27C104.298 225.106 103.192 223.372 100.749 223.525C93.9427 223.738 97.3459 236.5 100.154 243.136C105.288 256.247 123.561 251.953 126.049 251.368L126.068 251.364C128.014 250.906 127.368 249.042 126.812 248.471C120.715 242.218 108.392 229.38 106.52 227.27Z" fill="#A46FFF"/>
<g opacity="0.8" filter="url(#filter4_f_598_6828)">
<path fill-rule="evenodd" clip-rule="evenodd" d="M99.7969 242.266C103.168 245.313 112.375 249.588 127.124 248.923C127.521 249.705 127.642 250.994 126.068 251.364L126.049 251.368C123.562 251.953 105.289 256.248 100.154 243.136C100.036 242.857 99.9166 242.566 99.7969 242.266C99.7969 242.266 99.7969 242.266 99.7969 242.266Z" fill="#8B55E8"/>
</g>
<path d="M255.163 125.209L259.169 95.8851C259.637 92.4547 263.127 90.3101 266.399 91.4414L293.506 100.813C295.928 101.65 297.448 104.052 297.168 106.599L293.915 136.183C293.53 139.683 289.995 141.92 286.667 140.77L258.807 131.138C256.335 130.283 254.809 127.801 255.163 125.209Z" fill="#00C01F"/>
<path d="M278.072 118.929L258.368 131.003L285.499 140.383C287.506 141.077 289.702 140.986 291.645 140.128L312.621 130.873L278.072 118.929Z" fill="url(#paint16_linear_598_6828)"/>
<path fill-rule="evenodd" clip-rule="evenodd" d="M260.915 131.868L284.189 121.254L289.914 82.4122L288.179 81.8125C287.081 81.4328 285.958 81.4221 284.933 81.7054L284.898 81.6453L262.702 91.4815C260.885 92.1568 259.456 93.7791 259.169 95.8868L255.163 125.21C254.809 127.803 256.334 130.285 258.807 131.14L260.915 131.868Z" fill="url(#paint17_linear_598_6828)"/>
<path d="M276.943 115.579L280.949 86.2552C281.417 82.8248 284.907 80.6803 288.179 81.8115L315.286 91.1831C317.708 92.0203 319.228 94.4221 318.948 96.9692L315.695 126.553C315.31 130.053 311.775 132.29 308.447 131.14L280.587 121.508C278.115 120.653 276.589 118.171 276.943 115.579Z" fill="url(#paint18_linear_598_6828)"/>
<path d="M285.148 120.17L286.742 108.504C287.025 106.43 289.135 105.133 291.114 105.817L305.727 110.869C307.194 111.376 308.114 112.833 307.94 114.376L306.616 126.135C306.378 128.248 304.243 129.595 302.234 128.9L287.352 123.756C285.857 123.239 284.934 121.738 285.148 120.17Z" fill="#89E305"/>
<path d="M281.561 120.048L282.176 115.541C282.356 114.229 283.69 113.409 284.942 113.841L292.03 116.292C292.956 116.612 293.538 117.531 293.431 118.505L292.931 123.052C292.783 124.391 291.431 125.247 290.159 124.806L282.954 122.316C282.009 121.989 281.425 121.04 281.561 120.048Z" fill="#89E305"/>
<path d="M285.963 88.4672L286.579 83.9596C286.758 82.6477 288.092 81.8275 289.344 82.2602L296.432 84.7109C297.359 85.0311 297.94 85.9496 297.833 86.9237L297.333 91.4713C297.186 92.8099 295.834 93.6654 294.561 93.2254L287.356 90.7347C286.411 90.4078 285.827 89.4586 285.963 88.4672Z" fill="#89E305"/>
<path d="M289.009 118.226L289.922 111.541C290.115 110.128 291.552 109.245 292.899 109.711L302.853 113.152C303.851 113.497 304.476 114.486 304.361 115.535L303.62 122.279C303.461 123.72 302.005 124.641 300.635 124.168L290.509 120.667C289.491 120.315 288.863 119.293 289.009 118.226Z" fill="white"/>
<path d="M296.536 116.097C296.511 116.327 296.648 116.543 296.866 116.619L298.405 117.151C298.76 117.273 299.136 117.035 299.177 116.662L299.369 114.917C299.399 114.646 299.237 114.39 298.979 114.301L296.263 113.362C295.915 113.241 295.543 113.47 295.493 113.835L295.387 114.609C295.356 114.842 295.493 115.066 295.716 115.143L296.349 115.362C296.5 115.414 296.595 115.564 296.577 115.723L296.536 116.097Z" fill="#404242"/>
<path d="M288.318 96.5079L289.689 86.5719C289.975 84.4997 292.084 83.2057 294.061 83.8892L308.221 88.7845C309.687 89.2915 310.607 90.7469 310.435 92.289L309.316 102.313C309.08 104.427 306.944 105.776 304.934 105.081L290.521 100.098C289.024 99.5806 288.101 98.0771 288.318 96.5079Z" fill="#89E305"/>
<path d="M291.431 96.29L292.344 89.6052C292.537 88.1927 293.974 87.3096 295.321 87.7754L305.276 91.2168C306.273 91.5616 306.899 92.5506 306.783 93.5994L306.042 100.344C305.883 101.785 304.428 102.706 303.057 102.232L292.932 98.7315C291.913 98.3794 291.285 97.3575 291.431 96.29Z" fill="white"/>
<path d="M292.817 100.447L291.999 106.358L302.201 110.53L302.325 103.735L292.817 100.447Z" fill="#89E305"/>
<path d="M303.201 110.016L301.62 109.47C301.272 109.349 301.067 108.987 301.144 108.626L302.018 104.509C302.109 104.079 302.557 103.826 302.973 103.97L305.263 104.761C305.588 104.874 305.791 105.198 305.75 105.54L305.357 108.832C305.328 109.08 305.175 109.295 304.951 109.404L303.76 109.983C303.586 110.067 303.385 110.079 303.201 110.016Z" fill="#F49000"/>
<path d="M299.853 104.227L299.5 107.281C299.479 107.463 299.527 107.646 299.635 107.795L300.926 109.571C301.231 109.991 301.865 109.968 302.139 109.527L304.168 106.261C304.312 106.029 304.315 105.736 304.175 105.501L302.878 103.32C302.697 103.017 302.326 102.886 301.995 103.008L300.326 103.624C300.067 103.72 299.884 103.953 299.853 104.227Z" fill="#FFC200"/>
<path d="M298.706 97.3871C298.68 97.6236 298.821 97.8466 299.046 97.9243L301.018 98.606C301.424 98.7463 301.855 98.4735 301.902 98.0466L302.122 96.0489C302.156 95.7383 301.97 95.4453 301.675 95.3432L298.513 94.2499C298.113 94.1119 297.688 94.3735 297.631 94.7919L297.508 95.693C297.467 95.9872 297.64 96.2688 297.921 96.3658L298.49 96.5624C298.663 96.6222 298.771 96.7938 298.751 96.9758L298.706 97.3871Z" fill="#404242"/>
<path opacity="0.4" d="M429 54.9272C449 48.5938 477.5 40.2067 508 65.4272C534 86.9268 530.333 121.261 525 134.927M525 134.927L517 123.927M525 134.927L537 127.427" stroke="#1CB0F6" stroke-width="3" stroke-linecap="round" stroke-linejoin="round" stroke-dasharray="6 6"/>
<path opacity="0.4" fill-rule="evenodd" clip-rule="evenodd" d="M42 224.428C42 225.256 41.3284 225.928 40.5 225.928H38.5C38.3247 225.928 38.1564 225.898 38 225.842V228.303C38 229.131 37.3284 229.803 36.5 229.803C35.6716 229.803 35 229.131 35 228.303L35 225.842C34.8436 225.898 34.6753 225.928 34.5 225.928H32.5C31.6716 225.928 31 225.256 31 224.428C31 223.599 31.6716 222.928 32.5 222.928H34.5C35.1917 222.928 35.7741 223.396 35.9475 224.033C36.1185 223.965 36.3049 223.928 36.5 223.928C36.6951 223.928 36.8815 223.965 37.0525 224.033C37.2259 223.396 37.8083 222.928 38.5 222.928H40.5C41.3284 222.928 42 223.599 42 224.428ZM42 296.428C42 297.256 41.3284 297.928 40.5 297.928H38.5C37.6716 297.928 37 297.256 37 296.428C37 296.197 37.0523 295.978 37.1457 295.782C36.9501 295.875 36.7312 295.928 36.5 295.928C36.2688 295.928 36.0499 295.875 35.8543 295.782C35.9477 295.978 36 296.197 36 296.428C36 297.256 35.3284 297.928 34.5 297.928H32.5C31.6716 297.928 31 297.256 31 296.428C31 295.599 31.6716 294.928 32.5 294.928H34.5C34.7312 294.928 34.9501 294.98 35.1457 295.073C35.0523 294.878 35 294.659 35 294.428L35 291.553C35 290.724 35.6716 290.053 36.5 290.053C37.3284 290.053 38 290.724 38 291.553V294.428C38 294.659 37.9477 294.878 37.8543 295.073C38.0499 294.98 38.2688 294.928 38.5 294.928H40.5C41.3284 294.928 42 295.599 42 296.428ZM35 285.803C35 286.631 35.6716 287.303 36.5 287.303C37.3284 287.303 38 286.631 38 285.803V280.053C38 279.224 37.3284 278.553 36.5 278.553C35.6716 278.553 35 279.224 35 280.053L35 285.803ZM35 274.303C35 275.131 35.6716 275.803 36.5 275.803C37.3284 275.803 38 275.131 38 274.303L38 268.553C38 267.724 37.3284 267.053 36.5 267.053C35.6716 267.053 35 267.724 35 268.553L35 274.303ZM35 262.803C35 263.631 35.6716 264.303 36.5 264.303C37.3284 264.303 38 263.631 38 262.803L38 257.053C38 256.224 37.3284 255.553 36.5 255.553C35.6716 255.553 35 256.224 35 257.053L35 262.803ZM35 251.303C35 252.131 35.6716 252.803 36.5 252.803C37.3284 252.803 38 252.131 38 251.303L38 245.553C38 244.724 37.3284 244.053 36.5 244.053C35.6716 244.053 35 244.724 35 245.553L35 251.303ZM35 239.803C35 240.631 35.6716 241.303 36.5 241.303C37.3284 241.303 38 240.631 38 239.803L38 234.053C38 233.224 37.3284 232.553 36.5 232.553C35.6716 232.553 35 233.224 35 234.053L35 239.803Z" fill="#1CB0F6"/>
<path opacity="0.4" d="M21 256.232C21.144 255.448 20.616 255.016 19.928 255.016C19.192 255.016 18.952 255.432 18.84 256.04L17.304 264.792C17.16 265.576 17.688 266.008 18.376 266.008C19.112 266.008 19.352 265.592 19.464 264.984L20.152 261.032C20.28 260.328 20.76 259.832 21.48 259.832C22.056 259.832 22.344 260.184 22.344 260.712C22.344 260.808 22.328 260.904 22.312 261.016L21.656 264.792C21.512 265.576 22.04 266.008 22.728 266.008C23.464 266.008 23.704 265.592 23.816 264.984L24.536 260.872C24.568 260.648 24.6 260.424 24.6 260.216C24.6 258.872 23.768 257.928 22.392 257.928C21.576 257.928 21.032 258.216 20.568 258.648L21 256.232Z" fill="#1CB0F6"/>
<path opacity="0.4" d="M526.584 54.5512L525.96 51.6392C527.272 51.0792 528.104 49.9592 528.104 48.2792C528.104 46.4392 526.552 45.4152 524.856 45.4152H522.28C521.608 45.4152 521.08 45.8632 520.968 46.5192L519.512 54.7432C519.368 55.5592 519.912 56.0072 520.632 56.0072C521.384 56.0072 521.624 55.5752 521.736 54.9352L522.216 52.1832H523.688L524.28 55.0952C524.392 55.6232 524.856 56.0072 525.432 56.0072C526.296 56.0072 526.728 55.2232 526.584 54.5512ZM524.248 47.3992C525.256 47.3992 525.752 47.8792 525.752 48.5992C525.752 49.6072 524.984 50.1992 523.912 50.1992H522.568L523.064 47.3992H524.248Z" fill="#1CB0F6"/>
<path opacity="0.4" d="M808.36 37.4792C808.728 36.7752 808.2 36.0072 807.448 36.0072C807.048 36.0072 806.696 36.2632 806.536 36.6152L804.408 41.0952L803.944 36.9512C803.896 36.4552 803.416 36.0072 802.856 36.0072C802.248 36.0072 801.64 36.5512 801.752 37.2232L802.632 42.9032C802.728 43.5592 803.208 44.0072 803.912 44.0072C804.68 44.0072 805.192 43.5752 805.496 42.9832L808.36 37.4792Z" fill="#1CB0F6"/>
<path opacity="0.4" d="M840 80.9272L748 21.9272M748 21.9272H765M748 21.9272V35.9272" stroke="#1CB0F6" stroke-width="3" stroke-linecap="round" stroke-linejoin="round" stroke-dasharray="6 6"/>
<path d="M225.033 27.8913L226.212 40.0503L246.701 27.2833L258.999 34.3837" stroke="#7BD3FF" stroke-width="8" stroke-linecap="round" stroke-linejoin="round"/>
<path fill-rule="evenodd" clip-rule="evenodd" d="M332.156 164.533C334.556 163.89 337.024 165.315 337.667 167.715C338.31 170.116 336.886 172.583 334.485 173.227L323.883 176.067L326.761 186.808C327.405 189.209 325.98 191.676 323.579 192.32C321.179 192.963 318.711 191.538 318.068 189.138L315.19 178.397L304.634 181.225C302.233 181.868 299.766 180.444 299.123 178.043C298.48 175.643 299.904 173.175 302.305 172.532L312.861 169.703L310.069 159.287C309.426 156.886 310.851 154.418 313.251 153.775C315.652 153.132 318.12 154.557 318.763 156.957L321.554 167.374L332.156 164.533Z" fill="#7BD3FF"/>
<path d="M208.487 127.354C205.771 128.922 205.392 131.009 205.188 133.106L203.769 150.051C203.601 152.015 203.675 153.613 204.827 155.608C205.905 157.475 207.991 157.855 209.731 156.85L219.406 151.264L221.048 154.107C222.101 155.932 224.06 156.385 225.885 155.332C227.71 154.278 228.212 152.404 227.158 150.579L225.517 147.736L226.153 147.369C227.681 146.487 228.111 144.88 227.229 143.353C226.347 141.825 224.692 141.31 223.164 142.192L222.528 142.559L214.418 128.513C213.365 126.688 210.906 125.958 208.487 127.354ZM209.5 150.081L210.684 136.157L216.417 146.087L209.5 150.081Z" fill="#6DCEFF"/>
<path d="M205.188 133.106L204.691 133.058L204.69 133.065L205.188 133.106ZM203.769 150.051L204.267 150.094L204.267 150.093L203.769 150.051ZM219.406 151.264L219.839 151.014L219.589 150.581L219.156 150.831L219.406 151.264ZM225.517 147.736L225.267 147.303L224.834 147.553L225.084 147.986L225.517 147.736ZM222.528 142.559L222.095 142.809L222.345 143.242L222.778 142.992L222.528 142.559ZM209.5 150.081L209.002 150.038L208.921 150.992L209.75 150.514L209.5 150.081ZM210.684 136.157L211.117 135.907L210.321 134.528L210.186 136.115L210.684 136.157ZM216.417 146.087L216.667 146.52L217.1 146.27L216.85 145.837L216.417 146.087ZM208.237 126.921C206.797 127.753 205.949 128.741 205.443 129.819C204.944 130.883 204.793 132.003 204.691 133.058L205.686 133.155C205.787 132.112 205.928 131.14 206.348 130.244C206.762 129.363 207.462 128.524 208.737 127.787L208.237 126.921ZM204.69 133.065L203.27 150.01L204.267 150.093L205.687 133.148L204.69 133.065ZM203.27 150.009C203.098 152.027 203.171 153.741 204.394 155.858L205.26 155.358C204.179 153.486 204.104 152.004 204.267 150.094L203.27 150.009ZM204.394 155.858C205.625 157.991 208.03 158.41 209.981 157.283L209.481 156.417C207.952 157.3 206.184 156.959 205.26 155.358L204.394 155.858ZM209.981 157.283L219.656 151.697L219.156 150.831L209.481 156.417L209.981 157.283ZM218.973 151.514L220.615 154.357L221.481 153.857L219.839 151.014L218.973 151.514ZM220.615 154.357C221.202 155.374 222.061 156.038 223.057 156.284C224.05 156.529 225.128 156.346 226.135 155.765L225.635 154.899C224.817 155.371 224.003 155.488 223.297 155.313C222.593 155.14 221.947 154.665 221.481 153.857L220.615 154.357ZM226.135 155.765C227.143 155.183 227.822 154.35 228.084 153.374C228.345 152.398 228.173 151.337 227.591 150.329L226.725 150.829C227.197 151.646 227.3 152.435 227.118 153.115C226.936 153.796 226.451 154.427 225.635 154.899L226.135 155.765ZM227.591 150.329L225.95 147.486L225.084 147.986L226.725 150.829L227.591 150.329ZM225.767 148.169L226.403 147.802L225.903 146.936L225.267 147.303L225.767 148.169ZM226.403 147.802C227.266 147.304 227.851 146.58 228.078 145.732C228.305 144.884 228.16 143.965 227.662 143.103L226.796 143.603C227.181 144.268 227.261 144.916 227.112 145.473C226.963 146.031 226.569 146.551 225.903 146.936L226.403 147.802ZM227.662 143.103C227.165 142.242 226.433 141.639 225.58 141.389C224.723 141.138 223.787 141.255 222.914 141.759L223.414 142.625C224.069 142.246 224.725 142.18 225.298 142.348C225.875 142.517 226.411 142.936 226.796 143.603L227.662 143.103ZM222.914 141.759L222.278 142.126L222.778 142.992L223.414 142.625L222.914 141.759ZM222.961 142.309L214.851 128.263L213.985 128.763L222.095 142.809L222.961 142.309ZM214.851 128.263C213.641 126.167 210.862 125.406 208.237 126.921L208.737 127.787C210.951 126.509 213.088 127.21 213.985 128.763L214.851 128.263ZM209.998 150.123L211.182 136.2L210.186 136.115L209.002 150.038L209.998 150.123ZM210.251 136.407L215.984 146.337L216.85 145.837L211.117 135.907L210.251 136.407ZM216.167 145.654L209.25 149.648L209.75 150.514L216.667 146.52L216.167 145.654Z" fill="#6DCEFF"/>
<path d="M535.143 235.216C535.851 237.859 538.737 239.525 541.379 238.817C544.022 238.109 545.688 235.223 544.98 232.581C544.272 229.938 541.386 228.272 538.744 228.98C536.101 229.688 534.435 232.574 535.143 235.216ZM527.513 249.614C528.202 252.183 530.362 253.492 532.932 252.804L555.689 246.706C558.258 246.018 559.475 243.803 558.786 241.234C558.098 238.665 555.918 237.282 553.348 237.97L530.591 244.068C528.022 244.757 526.825 247.044 527.513 249.614ZM541.3 258.194C542.008 260.837 544.893 262.503 547.536 261.794C550.179 261.086 551.845 258.201 551.137 255.558C550.429 252.915 547.543 251.249 544.9 251.957C542.258 252.666 540.592 255.551 541.3 258.194Z" fill="#7BD3FF"/>
<path d="M767.028 204.088C767.617 203.837 768.158 203.411 768.51 202.801C769.374 201.304 768.859 199.381 767.363 198.517C766.531 198.037 765.531 197.977 764.648 198.354C762.708 199.155 761.382 199.276 760.273 198.636C758.998 197.9 758.519 196.811 757.52 194.83C756.646 193.143 755.512 191.01 752.963 189.538C750.247 187.97 746.411 188.342 743.142 189.78C742.379 190.079 741.694 190.496 741.278 191.217C740.446 192.658 740.961 194.581 742.403 195.413C743.179 195.861 744.091 195.945 744.648 195.749C746.556 195.003 748.098 194.637 749.317 195.341C750.703 196.141 751.308 197.525 752.056 198.917C753.52 201.758 754.513 203.366 756.841 204.71C759.612 206.31 763.171 205.778 767.028 204.088ZM759.636 216.892C760.225 216.64 760.766 216.214 761.118 215.604C761.982 214.108 761.467 212.184 759.971 211.32C759.139 210.84 758.139 210.78 757.256 211.157C755.316 211.959 753.99 212.08 752.881 211.44C751.606 210.704 751.127 209.614 750.128 207.633C749.254 205.946 748.12 203.814 745.571 202.342C742.855 200.774 739.019 201.145 735.75 202.584C734.987 202.882 734.302 203.3 733.886 204.02C733.054 205.461 733.569 207.384 735.011 208.216C735.787 208.664 736.699 208.748 737.256 208.552C739.164 207.806 740.706 207.44 741.925 208.144C743.311 208.944 743.916 210.328 744.664 211.721C746.128 214.561 747.121 216.169 749.449 217.513C752.22 219.113 755.779 218.581 759.636 216.892Z" fill="#7BD3FF"/>
<path d="M767.028 204.088L766.832 203.628L766.828 203.63L767.028 204.088ZM764.648 198.354L764.839 198.816L764.845 198.814L764.648 198.354ZM757.52 194.83L757.966 194.604L757.964 194.6L757.52 194.83ZM743.142 189.78L743.324 190.246L743.334 190.242L743.343 190.238L743.142 189.78ZM744.648 195.749L744.814 196.22L744.822 196.217L744.83 196.214L744.648 195.749ZM752.056 198.917L752.5 198.688L752.496 198.681L752.056 198.917ZM759.636 216.892L759.44 216.432L759.436 216.434L759.636 216.892ZM757.256 211.157L757.447 211.62L757.453 211.617L757.256 211.157ZM750.128 207.633L750.574 207.408L750.572 207.403L750.128 207.633ZM735.75 202.584L735.932 203.049L735.942 203.045L735.951 203.041L735.75 202.584ZM737.256 208.552L737.422 209.024L737.43 209.021L737.438 209.018L737.256 208.552ZM744.664 211.721L745.108 211.491L745.104 211.484L744.664 211.721ZM767.225 204.548C767.897 204.261 768.53 203.768 768.944 203.051L768.077 202.551C767.787 203.053 767.336 203.413 766.832 203.628L767.225 204.548ZM768.944 203.051C769.946 201.315 769.348 199.086 767.613 198.084L767.113 198.95C768.37 199.676 768.803 201.294 768.077 202.551L768.944 203.051ZM767.613 198.084C766.645 197.525 765.48 197.455 764.452 197.894L764.845 198.814C765.583 198.499 766.418 198.549 767.113 198.95L767.613 198.084ZM764.458 197.892C762.554 198.678 761.422 198.722 760.523 198.203L760.023 199.069C761.342 199.831 762.862 199.633 764.839 198.816L764.458 197.892ZM760.523 198.203C759.406 197.559 758.992 196.637 757.966 194.604L757.073 195.055C758.047 196.984 758.59 198.242 760.023 199.069L760.523 198.203ZM757.964 194.6C757.087 192.907 755.898 190.656 753.213 189.105L752.713 189.971C755.127 191.365 756.205 193.378 757.076 195.059L757.964 194.6ZM753.213 189.105C750.301 187.424 746.281 187.853 742.941 189.323L743.343 190.238C746.541 188.831 750.193 188.516 752.713 189.971L753.213 189.105ZM742.96 189.315C742.15 189.631 741.343 190.104 740.845 190.967L741.711 191.467C742.045 190.888 742.607 190.526 743.324 190.246L742.96 189.315ZM740.845 190.967C739.875 192.647 740.472 194.876 742.153 195.846L742.653 194.98C741.451 194.286 741.017 192.669 741.711 191.467L740.845 190.967ZM742.153 195.846C743.029 196.352 744.093 196.474 744.814 196.22L744.482 195.277C744.089 195.415 743.328 195.37 742.653 194.98L742.153 195.846ZM744.83 196.214C745.774 195.845 746.59 195.586 747.303 195.497C748.007 195.409 748.579 195.492 749.067 195.774L749.567 194.908C748.836 194.486 748.028 194.399 747.179 194.505C746.339 194.61 745.429 194.906 744.466 195.283L744.83 196.214ZM749.067 195.774C750.3 196.485 750.836 197.702 751.615 199.154L752.496 198.681C751.78 197.347 751.106 195.796 749.567 194.908L749.067 195.774ZM751.611 199.146C753.083 202.001 754.13 203.722 756.591 205.143L757.091 204.277C754.895 203.009 753.957 201.515 752.5 198.688L751.611 199.146ZM756.591 205.143C759.577 206.867 763.334 206.252 767.229 204.546L766.828 203.63C763.008 205.303 759.647 205.753 757.091 204.277L756.591 205.143ZM759.833 217.351C760.505 217.064 761.138 216.571 761.552 215.854L760.685 215.354C760.395 215.857 759.944 216.216 759.44 216.432L759.833 217.351ZM761.552 215.854C762.554 214.119 761.956 211.889 760.221 210.887L759.721 211.753C760.978 212.479 761.411 214.097 760.685 215.354L761.552 215.854ZM760.221 210.887C759.253 210.329 758.088 210.259 757.06 210.698L757.453 211.617C758.191 211.302 759.026 211.352 759.721 211.753L760.221 210.887ZM757.066 210.695C755.162 211.481 754.03 211.525 753.131 211.007L752.631 211.873C753.95 212.634 755.47 212.436 757.447 211.62L757.066 210.695ZM753.131 211.007C752.014 210.362 751.6 209.44 750.574 207.408L749.681 207.858C750.655 209.787 751.198 211.045 752.631 211.873L753.131 211.007ZM750.572 207.403C749.695 205.71 748.506 203.459 745.821 201.909L745.321 202.775C747.735 204.168 748.813 206.182 749.684 207.863L750.572 207.403ZM745.821 201.909C742.909 200.227 738.889 200.656 735.549 202.126L735.951 203.041C739.149 201.634 742.801 201.32 745.321 202.775L745.821 201.909ZM735.568 202.118C734.758 202.434 733.951 202.907 733.453 203.77L734.319 204.27C734.653 203.692 735.215 203.329 735.932 203.049L735.568 202.118ZM733.453 203.77C732.483 205.45 733.08 207.679 734.761 208.649L735.261 207.783C734.059 207.09 733.625 205.472 734.319 204.27L733.453 203.77ZM734.761 208.649C735.637 209.155 736.701 209.277 737.422 209.024L737.09 208.08C736.697 208.219 735.936 208.174 735.261 207.783L734.761 208.649ZM737.438 209.018C738.382 208.649 739.198 208.389 739.911 208.301C740.615 208.213 741.187 208.295 741.675 208.577L742.175 207.711C741.444 207.289 740.636 207.202 739.787 207.308C738.947 207.413 738.037 207.71 737.074 208.086L737.438 209.018ZM741.675 208.577C742.908 209.289 743.444 210.506 744.223 211.957L745.104 211.484C744.388 210.151 743.714 208.6 742.175 207.711L741.675 208.577ZM744.219 211.95C745.691 214.804 746.738 216.526 749.199 217.946L749.699 217.08C747.503 215.812 746.565 214.318 745.108 211.492L744.219 211.95ZM749.199 217.946C752.185 219.67 755.942 219.056 759.837 217.35L759.436 216.434C755.616 218.107 752.255 218.556 749.699 217.08L749.199 217.946Z" fill="#7BD3FF"/>
<path d="M590.555 294.054C588.141 293.407 587.509 291.412 588.194 288.856C588.866 286.347 590.464 285.305 592.783 285.926C595.008 286.522 595.975 288.404 594.986 292.096L594.592 293.563C593.645 294.071 592.401 294.549 590.555 294.054ZM581.091 287.156C579.468 293.214 582.113 297.728 587.698 299.224C589.781 299.782 591.65 299.623 593.109 299.101L592.018 303.172C591.308 305.822 589.507 306.861 586.999 306.189C585.39 305.758 584.444 304.744 584.24 303.421C584.049 302.051 583.069 300.977 581.697 300.609C579.093 299.911 577.2 302.245 577.463 304.294C577.991 308.189 580.823 310.875 585.508 312.131C592.371 313.97 597.296 310.927 599.033 304.442L601.887 293.793C603.827 286.552 600.484 281.8 594.236 280.126C588.13 278.49 582.816 280.719 581.091 287.156Z" fill="#6DCEFF"/>
<path d="M594.592 293.563L594.828 294.004L595.019 293.902L595.075 293.693L594.592 293.563ZM593.109 299.101L593.592 299.231L593.839 298.309L592.94 298.63L593.109 299.101ZM584.24 303.421L583.745 303.49L583.746 303.497L584.24 303.421ZM577.463 304.294L576.967 304.357L576.967 304.361L577.463 304.294ZM590.684 293.571C589.603 293.282 588.979 292.713 588.674 291.979C588.358 291.22 588.35 290.205 588.677 288.985L587.711 288.727C587.353 290.063 587.318 291.324 587.751 292.363C588.193 293.427 589.093 294.18 590.425 294.537L590.684 293.571ZM588.677 288.985C588.993 287.803 589.508 287.045 590.141 286.638C590.766 286.237 591.591 286.124 592.654 286.409L592.913 285.443C591.657 285.106 590.523 285.204 589.601 285.797C588.687 286.383 588.066 287.4 587.711 288.727L588.677 288.985ZM592.654 286.409C593.645 286.675 594.297 287.202 594.624 288.033C594.964 288.896 594.985 290.167 594.503 291.967L595.469 292.226C595.975 290.334 596.008 288.817 595.555 287.667C595.09 286.485 594.147 285.774 592.913 285.443L592.654 286.409ZM594.503 291.967L594.109 293.434L595.075 293.693L595.469 292.226L594.503 291.967ZM594.357 293.123C593.475 293.594 592.365 294.022 590.684 293.571L590.425 294.537C592.436 295.076 593.814 294.547 594.828 294.004L594.357 293.123ZM580.608 287.026C579.771 290.151 580.021 292.933 581.255 295.144C582.49 297.357 584.672 298.931 587.569 299.707L587.828 298.741C585.14 298.021 583.207 296.59 582.128 294.657C581.049 292.722 580.788 290.219 581.574 287.285L580.608 287.026ZM587.569 299.707C589.748 300.291 591.721 300.129 593.277 299.572L592.94 298.63C591.578 299.118 589.814 299.273 587.828 298.741L587.569 299.707ZM592.626 298.972L591.535 303.042L592.501 303.301L593.592 299.231L592.626 298.972ZM591.535 303.042C591.202 304.285 590.634 305.076 589.927 305.497C589.222 305.916 588.293 306.018 587.128 305.706L586.869 306.672C588.214 307.032 589.438 306.951 590.438 306.356C591.436 305.763 592.124 304.709 592.501 303.301L591.535 303.042ZM587.128 305.706C585.676 305.317 584.903 304.438 584.735 303.345L583.746 303.497C583.985 305.049 585.104 306.199 586.869 306.672L587.128 305.706ZM584.736 303.352C584.516 301.773 583.383 300.543 581.826 300.126L581.567 301.092C582.756 301.41 583.583 302.329 583.745 303.49L584.736 303.352ZM581.826 300.126C580.34 299.728 579.036 300.198 578.155 301.065C577.286 301.918 576.814 303.165 576.967 304.357L577.959 304.23C577.849 303.373 578.192 302.43 578.855 301.778C579.505 301.14 580.45 300.792 581.567 301.092L581.826 300.126ZM576.967 304.361C577.531 308.516 580.564 311.324 585.379 312.614L585.638 311.648C581.081 310.427 578.452 307.863 577.958 304.226L576.967 304.361ZM585.379 312.614C588.906 313.559 591.996 313.264 594.444 311.84C596.891 310.417 598.622 307.909 599.516 304.572L598.55 304.313C597.707 307.461 596.107 309.716 593.941 310.976C591.777 312.235 588.973 312.542 585.638 311.648L585.379 312.614ZM599.516 304.572L602.369 293.923L601.404 293.664L598.55 304.313L599.516 304.572ZM602.369 293.923C603.366 290.205 603.021 287.061 601.561 284.616C600.104 282.174 597.58 280.505 594.365 279.643L594.107 280.609C597.14 281.422 599.411 282.965 600.702 285.128C601.991 287.288 602.348 290.14 601.404 293.664L602.369 293.923ZM594.365 279.643C591.227 278.802 588.24 278.941 585.796 280.167C583.343 281.397 581.502 283.691 580.608 287.026L581.574 287.285C582.405 284.184 584.083 282.145 586.245 281.061C588.416 279.972 591.14 279.814 594.107 280.609L594.365 279.643Z" fill="#6DCEFF"/>
</g>
<defs>
<filter id="filter0_f_598_6828" x="694.707" y="81.2919" width="87.0107" height="60.9241" filterUnits="userSpaceOnUse" color-interpolation-filters="sRGB">
<feFlood flood-opacity="0" result="BackgroundImageFix"/>
<feBlend mode="normal" in="SourceGraphic" in2="BackgroundImageFix" result="shape"/>
<feGaussianBlur stdDeviation="7.55865" result="effect1_foregroundBlur_598_6828"/>
</filter>
<filter id="filter1_f_598_6828" x="709.796" y="91.8591" width="56.8332" height="39.7934" filterUnits="userSpaceOnUse" color-interpolation-filters="sRGB">
<feFlood flood-opacity="0" result="BackgroundImageFix"/>
<feBlend mode="normal" in="SourceGraphic" in2="BackgroundImageFix" result="shape"/>
<feGaussianBlur stdDeviation="4.93713" result="effect1_foregroundBlur_598_6828"/>
</filter>
<filter id="filter2_i_598_6828" x="700.157" y="48.8188" width="39.3277" height="41.7105" filterUnits="userSpaceOnUse" color-interpolation-filters="sRGB">
<feFlood flood-opacity="0" result="BackgroundImageFix"/>
<feBlend mode="normal" in="SourceGraphic" in2="BackgroundImageFix" result="shape"/>
<feColorMatrix in="SourceAlpha" type="matrix" values="0 0 0 0 0 0 0 0 0 0 0 0 0 0 0 0 0 0 127 0" result="hardAlpha"/>
<feOffset dx="0.889253" dy="-5.33552"/>
<feGaussianBlur stdDeviation="3.3347"/>
<feComposite in2="hardAlpha" operator="arithmetic" k2="-1" k3="1"/>
<feColorMatrix type="matrix" values="0 0 0 0 0 0 0 0 0 0 0 0 0 0 0 0 0 0 0.25 0"/>
<feBlend mode="normal" in2="shape" result="effect1_innerShadow_598_6828"/>
</filter>
<filter id="filter3_f_598_6828" x="7.31936" y="229.527" width="137.621" height="66.748" filterUnits="userSpaceOnUse" color-interpolation-filters="sRGB">
<feFlood flood-opacity="0" result="BackgroundImageFix"/>
<feBlend mode="normal" in="SourceGraphic" in2="BackgroundImageFix" result="shape"/>
<feGaussianBlur stdDeviation="0.340322" result="effect1_foregroundBlur_598_6828"/>
</filter>
<filter id="filter4_f_598_6828" x="97.4146" y="239.883" width="32.3471" height="15.0028" filterUnits="userSpaceOnUse" color-interpolation-filters="sRGB">
<feFlood flood-opacity="0" result="BackgroundImageFix"/>
<feBlend mode="normal" in="SourceGraphic" in2="BackgroundImageFix" result="shape"/>
<feGaussianBlur stdDeviation="1.19113" result="effect1_foregroundBlur_598_6828"/>
</filter>
<linearGradient id="paint0_linear_598_6828" x1="377" y1="198.928" x2="57.6117" y2="121.016" gradientUnits="userSpaceOnUse">
<stop stop-color="#C4C4C4"/>
<stop offset="1" stop-color="#C4C4C4" stop-opacity="0"/>
</linearGradient>
<linearGradient id="paint1_linear_598_6828" x1="628" y1="340.928" x2="537.054" y2="194.783" gradientUnits="userSpaceOnUse">
<stop stop-color="#C4C4C4"/>
<stop offset="1" stop-color="#C4C4C4" stop-opacity="0"/>
</linearGradient>
<linearGradient id="paint2_linear_598_6828" x1="436.707" y1="103.921" x2="334.35" y2="31.2752" gradientUnits="userSpaceOnUse">
<stop stop-color="#3FDB01"/>
<stop offset="1" stop-color="#3FDB01" stop-opacity="0"/>
</linearGradient>
<linearGradient id="paint3_linear_598_6828" x1="440.952" y1="108.487" x2="442.652" y2="110.487" gradientUnits="userSpaceOnUse">
<stop stop-color="#00C01F"/>
<stop offset="1" stop-color="#3ACB01"/>
</linearGradient>
<linearGradient id="paint4_linear_598_6828" x1="463.578" y1="86.6454" x2="454.963" y2="85.3865" gradientUnits="userSpaceOnUse">
<stop stop-color="#3FDA00"/>
<stop offset="1" stop-color="#3FDA00" stop-opacity="0"/>
</linearGradient>
<linearGradient id="paint5_linear_598_6828" x1="478.496" y1="114.72" x2="475.713" y2="117.732" gradientUnits="userSpaceOnUse">
<stop stop-color="#3FDB01"/>
<stop offset="1" stop-color="#3ACA00"/>
</linearGradient>
<linearGradient id="paint6_linear_598_6828" x1="605.947" y1="214.467" x2="609.159" y2="215.161" gradientUnits="userSpaceOnUse">
<stop stop-color="#00C01F"/>
<stop offset="1" stop-color="#3ACB01"/>
</linearGradient>
<linearGradient id="paint7_linear_598_6828" x1="611.805" y1="175.534" x2="602.284" y2="180.843" gradientUnits="userSpaceOnUse">
<stop stop-color="#3FDA00"/>
<stop offset="1" stop-color="#3FDA00" stop-opacity="0"/>
</linearGradient>
<linearGradient id="paint8_linear_598_6828" x1="648.011" y1="192.078" x2="647.538" y2="197.191" gradientUnits="userSpaceOnUse">
<stop stop-color="#3FDB01"/>
<stop offset="1" stop-color="#3ACA00"/>
</linearGradient>
<linearGradient id="paint9_linear_598_6828" x1="610.736" y1="184.42" x2="558.415" y2="70.3283" gradientUnits="userSpaceOnUse">
<stop stop-color="#3FDB01"/>
<stop offset="1" stop-color="#3FDB01" stop-opacity="0"/>
</linearGradient>
<linearGradient id="paint10_linear_598_6828" x1="736.72" y1="86.5909" x2="849.785" y2="159.478" gradientUnits="userSpaceOnUse">
<stop stop-color="#FFAADE"/>
<stop offset="1" stop-color="#FFAADE" stop-opacity="0"/>
</linearGradient>
<linearGradient id="paint11_linear_598_6828" x1="733.614" y1="86.4478" x2="756.294" y2="112.345" gradientUnits="userSpaceOnUse">
<stop stop-color="#FFAADE"/>
<stop offset="0.998113" stop-color="#FE84CF"/>
</linearGradient>
<linearGradient id="paint12_linear_598_6828" x1="101.178" y1="278.385" x2="53.193" y2="240.439" gradientUnits="userSpaceOnUse">
<stop stop-color="#C4C4C4"/>
<stop offset="1" stop-color="#C4C4C4" stop-opacity="0"/>
</linearGradient>
<linearGradient id="paint13_linear_598_6828" x1="133.236" y1="278.206" x2="135.023" y2="284.928" gradientUnits="userSpaceOnUse">
<stop stop-color="#FFC8C1"/>
<stop offset="1" stop-color="#EAA79F"/>
</linearGradient>
<linearGradient id="paint14_linear_598_6828" x1="89.1215" y1="239.665" x2="92.9927" y2="240.559" gradientUnits="userSpaceOnUse">
<stop stop-color="#8A54E7"/>
<stop offset="1" stop-color="#A46FFF"/>
</linearGradient>
<linearGradient id="paint15_linear_598_6828" x1="94.3964" y1="222.247" x2="96.4346" y2="222.981" gradientUnits="userSpaceOnUse">
<stop stop-color="#8A54E7"/>
<stop offset="1" stop-color="#A46FFF"/>
</linearGradient>
<linearGradient id="paint16_linear_598_6828" x1="290.563" y1="127.263" x2="291.163" y2="125.341" gradientUnits="userSpaceOnUse">
<stop stop-color="#00C01F"/>
<stop offset="1" stop-color="#3ACB01"/>
</linearGradient>
<linearGradient id="paint17_linear_598_6828" x1="267.134" y1="121.551" x2="269.849" y2="127.651" gradientUnits="userSpaceOnUse">
<stop stop-color="#3FDA00"/>
<stop offset="1" stop-color="#3FDA00" stop-opacity="0"/>
</linearGradient>
<linearGradient id="paint18_linear_598_6828" x1="279.215" y1="100.373" x2="282.309" y2="100.942" gradientUnits="userSpaceOnUse">
<stop stop-color="#3FDB01"/>
<stop offset="1" stop-color="#3ACA00"/>
</linearGradient>
<clipPath id="clip0_598_6828">
<rect width="914" height="408" fill="white"/>
</clipPath>
</defs>
</svg>
